<?xml version="1.0" encoding="UTF-8" standalone="no"?>
<!DOCTYPE svg PUBLIC "-//W3C//DTD SVG 1.1//EN"
 "http://www.w3.org/Graphics/SVG/1.1/DTD/svg11.dtd">
<!-- Generated by graphviz version 5.0.0 (20220707.1540)
 -->
<!-- Title: StorageDiagram Pages: 1 -->
<svg width="1860pt" height="858pt"
 viewBox="0.00 0.00 1859.86 858.40" xmlns="http://www.w3.org/2000/svg" xmlns:xlink="http://www.w3.org/1999/xlink">
<g id="graph0" class="graph" transform="scale(1 1) rotate(0) translate(4 854.4)">
<title>StorageDiagram</title>
<polygon fill="white" stroke="transparent" points="-4,4 -4,-854.4 1855.86,-854.4 1855.86,4 -4,4"/>
<!-- 6 -->
<g id="node1" class="node">
<title>6</title>
<polygon fill="#f2f2f2" stroke="black" points="0,-437.5 0,-635.9 776.51,-635.9 776.51,-437.5 0,-437.5"/>
<text text-anchor="middle" x="388.26" y="-619.3" font-family="Courier New" font-size="14.00">Store &lt;&lt;Contract&gt;&gt;</text>
<polyline fill="none" stroke="black" points="0,-611.1 776.51,-611.1 "/>
<text text-anchor="middle" x="24.8" y="-594.5" font-family="Courier New" font-size="14.00">slot</text>
<polyline fill="none" stroke="black" points="0,-586.3 49.61,-586.3 "/>
<text text-anchor="middle" x="24.8" y="-569.7" font-family="Courier New" font-size="14.00">0</text>
<polyline fill="none" stroke="black" points="0,-561.5 49.61,-561.5 "/>
<text text-anchor="middle" x="24.8" y="-544.9" font-family="Courier New" font-size="14.00">1</text>
<polyline fill="none" stroke="black" points="0,-536.7 49.61,-536.7 "/>
<text text-anchor="middle" x="24.8" y="-520.1" font-family="Courier New" font-size="14.00">2</text>
<polyline fill="none" stroke="black" points="0,-511.9 49.61,-511.9 "/>
<text text-anchor="middle" x="24.8" y="-495.3" font-family="Courier New" font-size="14.00">3</text>
<polyline fill="none" stroke="black" points="0,-487.1 49.61,-487.1 "/>
<text text-anchor="middle" x="24.8" y="-470.5" font-family="Courier New" font-size="14.00">4</text>
<polyline fill="none" stroke="black" points="0,-462.3 49.61,-462.3 "/>
<text text-anchor="middle" x="24.8" y="-445.7" font-family="Courier New" font-size="14.00">5&#45;52</text>
<polyline fill="none" stroke="black" points="49.61,-437.5 49.61,-611.1 "/>
<text text-anchor="middle" x="413.06" y="-594.5" font-family="Courier New" font-size="14.00">type: &lt;inherited contract&gt;.variable (bytes)</text>
<polyline fill="none" stroke="black" points="49.61,-586.3 776.51,-586.3 "/>
<text text-anchor="middle" x="124.82" y="-569.7" font-family="Courier New" font-size="14.00">unallocated (28)</text>
<polyline fill="none" stroke="black" points="200.03,-561.5 200.03,-586.3 "/>
<text text-anchor="middle" x="275.24" y="-569.7" font-family="Courier New" font-size="14.00">uint8: index (1)</text>
<polyline fill="none" stroke="black" points="350.45,-561.5 350.45,-586.3 "/>
<text text-anchor="middle" x="421.46" y="-569.7" font-family="Courier New" font-size="14.00">bool: flag3 (1)</text>
<polyline fill="none" stroke="black" points="492.47,-561.5 492.47,-586.3 "/>
<text text-anchor="middle" x="563.48" y="-569.7" font-family="Courier New" font-size="14.00">bool: flag2 (1)</text>
<polyline fill="none" stroke="black" points="634.49,-561.5 634.49,-586.3 "/>
<text text-anchor="middle" x="705.5" y="-569.7" font-family="Courier New" font-size="14.00">bool: flag1 (1)</text>
<polyline fill="none" stroke="black" points="49.61,-561.5 776.51,-561.5 "/>
<text text-anchor="middle" x="412.62" y="-544.9" font-family="Courier New" font-size="14.00">uint256: number (32)</text>
<polyline fill="none" stroke="black" points="49.61,-536.7 776.51,-536.7 "/>
<text text-anchor="middle" x="224.82" y="-520.1" font-family="Courier New" font-size="14.00">unallocated (12)</text>
<polyline fill="none" stroke="black" points="400.03,-511.9 400.03,-536.7 "/>
<text text-anchor="middle" x="587.84" y="-520.1" font-family="Courier New" font-size="14.00">address: admin (20)</text>
<polyline fill="none" stroke="black" points="49.61,-511.9 776.51,-511.9 "/>
<text text-anchor="middle" x="222.82" y="-495.3" font-family="Courier New" font-size="14.00">unallocated (12)</text>
<polyline fill="none" stroke="black" points="396.03,-487.1 396.03,-511.9 "/>
<text text-anchor="middle" x="586.04" y="-495.3" font-family="Courier New" font-size="14.00">address: admin2 (20)</text>
<polyline fill="none" stroke="black" points="49.61,-487.1 776.51,-487.1 "/>
<text text-anchor="middle" x="412.63" y="-470.5" font-family="Courier New" font-size="14.00">mapping(address=&gt;uint256): balances (32)</text>
<polyline fill="none" stroke="black" points="49.61,-462.3 776.51,-462.3 "/>
<text text-anchor="middle" x="412.83" y="-445.7" font-family="Courier New" font-size="14.00">payments[8]: topPayments (1536)</text>
</g>
<!-- 5 -->
<g id="node6" class="node">
<title>5</title>
<polygon fill="#f2f2f2" stroke="black" points="812.51,-362.9 812.51,-536.5 1114.16,-536.5 1114.16,-362.9 812.51,-362.9"/>
<text text-anchor="middle" x="963.33" y="-519.9" font-family="Courier New" font-size="14.00">payments[8]: topPayments &lt;&lt;Array&gt;&gt;</text>
<polyline fill="none" stroke="black" points="812.51,-511.7 1114.16,-511.7 "/>
<text text-anchor="middle" x="852.01" y="-495.1" font-family="Courier New" font-size="14.00">slot</text>
<polyline fill="none" stroke="black" points="812.51,-486.9 891.52,-486.9 "/>
<text text-anchor="middle" x="852.01" y="-470.3" font-family="Courier New" font-size="14.00">5&#45;10</text>
<polyline fill="none" stroke="black" points="812.51,-462.1 891.52,-462.1 "/>
<text text-anchor="middle" x="852.01" y="-445.5" font-family="Courier New" font-size="14.00">11&#45;17</text>
<polyline fill="none" stroke="black" points="812.51,-437.3 891.52,-437.3 "/>
<text text-anchor="middle" x="852.01" y="-420.7" font-family="Courier New" font-size="14.00">17&#45;41</text>
<polyline fill="none" stroke="black" points="812.51,-412.5 891.52,-412.5 "/>
<text text-anchor="middle" x="852.01" y="-395.9" font-family="Courier New" font-size="14.00">41&#45;47</text>
<polyline fill="none" stroke="black" points="812.51,-387.7 891.52,-387.7 "/>
<text text-anchor="middle" x="852.01" y="-371.1" font-family="Courier New" font-size="14.00">47&#45;53</text>
<polyline fill="none" stroke="black" points="891.52,-362.9 891.52,-511.7 "/>
<text text-anchor="middle" x="1002.43" y="-495.1" font-family="Courier New" font-size="14.00">type: variable (bytes)</text>
<polyline fill="none" stroke="black" points="891.52,-486.9 1113.35,-486.9 "/>
<text text-anchor="middle" x="1002.33" y="-470.3" font-family="Courier New" font-size="14.00">payments (192)</text>
<polyline fill="none" stroke="black" points="891.52,-462.1 1113.35,-462.1 "/>
<text text-anchor="middle" x="1002.33" y="-445.5" font-family="Courier New" font-size="14.00">payments (192)</text>
<polyline fill="none" stroke="black" points="891.52,-437.3 1113.35,-437.3 "/>
<text text-anchor="middle" x="1002.02" y="-420.7" font-family="Courier New" font-size="14.00">&#45;&#45;&#45;&#45; (800)</text>
<polyline fill="none" stroke="black" points="891.52,-412.5 1113.35,-412.5 "/>
<text text-anchor="middle" x="1002.33" y="-395.9" font-family="Courier New" font-size="14.00">payments (192)</text>
<polyline fill="none" stroke="black" points="891.52,-387.7 1113.35,-387.7 "/>
<text text-anchor="middle" x="1002.33" y="-371.1" font-family="Courier New" font-size="14.00">payments (192)</text>
</g>
<!-- 6&#45;&gt;5 -->
<g id="edge1" class="edge">
<title>6:46&#45;&gt;5</title>
<path fill="none" stroke="black" d="M776.51,-449.7C784.92,-449.7 793.54,-449.7 802.24,-449.7"/>
<polygon fill="black" stroke="black" points="802.48,-453.2 812.48,-449.7 802.48,-446.2 802.48,-453.2"/>
</g>
<!-- 1 -->
<g id="node2" class="node">
<title>1</title>
<polygon fill="#f2f2f2" stroke="black" points="1150.16,-651.5 1150.16,-849.9 1851.86,-849.9 1851.86,-651.5 1150.16,-651.5"/>
<text text-anchor="middle" x="1501.01" y="-833.3" font-family="Courier New" font-size="14.00">payments &lt;&lt;Struct&gt;&gt;</text>
<polyline fill="none" stroke="black" points="1150.16,-825.1 1851.86,-825.1 "/>
<text text-anchor="middle" x="1174.96" y="-808.5" font-family="Courier New" font-size="14.00">slot</text>
<polyline fill="none" stroke="black" points="1150.16,-800.3 1199.76,-800.3 "/>
<text text-anchor="middle" x="1174.96" y="-783.7" font-family="Courier New" font-size="14.00">5</text>
<polyline fill="none" stroke="black" points="1150.16,-775.5 1199.76,-775.5 "/>
<text text-anchor="middle" x="1174.96" y="-758.9" font-family="Courier New" font-size="14.00">6</text>
<polyline fill="none" stroke="black" points="1150.16,-750.7 1199.76,-750.7 "/>
<text text-anchor="middle" x="1174.96" y="-734.1" font-family="Courier New" font-size="14.00">7</text>
<polyline fill="none" stroke="black" points="1150.16,-725.9 1199.76,-725.9 "/>
<text text-anchor="middle" x="1174.96" y="-709.3" font-family="Courier New" font-size="14.00">8</text>
<polyline fill="none" stroke="black" points="1150.16,-701.1 1199.76,-701.1 "/>
<text text-anchor="middle" x="1174.96" y="-684.5" font-family="Courier New" font-size="14.00">9</text>
<polyline fill="none" stroke="black" points="1150.16,-676.3 1199.76,-676.3 "/>
<text text-anchor="middle" x="1174.96" y="-659.7" font-family="Courier New" font-size="14.00">10</text>
<polyline fill="none" stroke="black" points="1199.76,-651.5 1199.76,-825.1 "/>
<text text-anchor="middle" x="1525.81" y="-808.5" font-family="Courier New" font-size="14.00">type: variable (bytes)</text>
<polyline fill="none" stroke="black" points="1199.76,-800.3 1851.86,-800.3 "/>
<text text-anchor="middle" x="1274.97" y="-783.7" font-family="Courier New" font-size="14.00">unallocated (29)</text>
<polyline fill="none" stroke="black" points="1350.18,-775.5 1350.18,-800.3 "/>
<text text-anchor="middle" x="1450.6" y="-783.7" font-family="Courier New" font-size="14.00">uint8: paymentType (1)</text>
<polyline fill="none" stroke="black" points="1551.01,-775.5 1551.01,-800.3 "/>
<text text-anchor="middle" x="1630.43" y="-783.7" font-family="Courier New" font-size="14.00">bool: checked (1)</text>
<polyline fill="none" stroke="black" points="1709.84,-775.5 1709.84,-800.3 "/>
<text text-anchor="middle" x="1780.85" y="-783.7" font-family="Courier New" font-size="14.00">bool: valid (1)</text>
<polyline fill="none" stroke="black" points="1199.76,-775.5 1851.86,-775.5 "/>
<text text-anchor="middle" x="1525.78" y="-758.9" font-family="Courier New" font-size="14.00">uint256: amount (32)</text>
<polyline fill="none" stroke="black" points="1199.76,-750.7 1851.86,-750.7 "/>
<text text-anchor="middle" x="1525.78" y="-734.1" font-family="Courier New" font-size="14.00">uint256: finalAmount (32)</text>
<polyline fill="none" stroke="black" points="1199.76,-725.9 1851.86,-725.9 "/>
<text text-anchor="middle" x="1525.68" y="-709.3" font-family="Courier New" font-size="14.00">uint256: initialAmount (32)</text>
<polyline fill="none" stroke="black" points="1199.76,-701.1 1851.86,-701.1 "/>
<text text-anchor="middle" x="1353.97" y="-684.5" font-family="Courier New" font-size="14.00">unallocated (12)</text>
<polyline fill="none" stroke="black" points="1508.18,-676.3 1508.18,-701.1 "/>
<text text-anchor="middle" x="1679.7" y="-684.5" font-family="Courier New" font-size="14.00">address: sender (20)</text>
<polyline fill="none" stroke="black" points="1199.76,-676.3 1851.86,-676.3 "/>
<text text-anchor="middle" x="1349.97" y="-659.7" font-family="Courier New" font-size="14.00">unallocated (12)</text>
<polyline fill="none" stroke="black" points="1500.18,-651.5 1500.18,-676.3 "/>
<text text-anchor="middle" x="1675.6" y="-659.7" font-family="Courier New" font-size="14.00">address: receiver (20)</text>
</g>
<!-- 2 -->
<g id="node3" class="node">
<title>2</title>
<polygon fill="#f2f2f2" stroke="black" points="1150.16,-434.5 1150.16,-632.9 1851.86,-632.9 1851.86,-434.5 1150.16,-434.5"/>
<text text-anchor="middle" x="1501.01" y="-616.3" font-family="Courier New" font-size="14.00">payments &lt;&lt;Struct&gt;&gt;</text>
<polyline fill="none" stroke="black" points="1150.16,-608.1 1851.86,-608.1 "/>
<text text-anchor="middle" x="1174.96" y="-591.5" font-family="Courier New" font-size="14.00">slot</text>
<polyline fill="none" stroke="black" points="1150.16,-583.3 1199.76,-583.3 "/>
<text text-anchor="middle" x="1174.96" y="-566.7" font-family="Courier New" font-size="14.00">11</text>
<polyline fill="none" stroke="black" points="1150.16,-558.5 1199.76,-558.5 "/>
<text text-anchor="middle" x="1174.96" y="-541.9" font-family="Courier New" font-size="14.00">12</text>
<polyline fill="none" stroke="black" points="1150.16,-533.7 1199.76,-533.7 "/>
<text text-anchor="middle" x="1174.96" y="-517.1" font-family="Courier New" font-size="14.00">13</text>
<polyline fill="none" stroke="black" points="1150.16,-508.9 1199.76,-508.9 "/>
<text text-anchor="middle" x="1174.96" y="-492.3" font-family="Courier New" font-size="14.00">14</text>
<polyline fill="none" stroke="black" points="1150.16,-484.1 1199.76,-484.1 "/>
<text text-anchor="middle" x="1174.96" y="-467.5" font-family="Courier New" font-size="14.00">15</text>
<polyline fill="none" stroke="black" points="1150.16,-459.3 1199.76,-459.3 "/>
<text text-anchor="middle" x="1174.96" y="-442.7" font-family="Courier New" font-size="14.00">16</text>
<polyline fill="none" stroke="black" points="1199.76,-434.5 1199.76,-608.1 "/>
<text text-anchor="middle" x="1525.81" y="-591.5" font-family="Courier New" font-size="14.00">type: variable (bytes)</text>
<polyline fill="none" stroke="black" points="1199.76,-583.3 1851.86,-583.3 "/>
<text text-anchor="middle" x="1274.97" y="-566.7" font-family="Courier New" font-size="14.00">unallocated (29)</text>
<polyline fill="none" stroke="black" points="1350.18,-558.5 1350.18,-583.3 "/>
<text text-anchor="middle" x="1450.6" y="-566.7" font-family="Courier New" font-size="14.00">uint8: paymentType (1)</text>
<polyline fill="none" stroke="black" points="1551.01,-558.5 1551.01,-583.3 "/>
<text text-anchor="middle" x="1630.43" y="-566.7" font-family="Courier New" font-size="14.00">bool: checked (1)</text>
<polyline fill="none" stroke="black" points="1709.84,-558.5 1709.84,-583.3 "/>
<text text-anchor="middle" x="1780.85" y="-566.7" font-family="Courier New" font-size="14.00">bool: valid (1)</text>
<polyline fill="none" stroke="black" points="1199.76,-558.5 1851.86,-558.5 "/>
<text text-anchor="middle" x="1525.78" y="-541.9" font-family="Courier New" font-size="14.00">uint256: amount (32)</text>
<polyline fill="none" stroke="black" points="1199.76,-533.7 1851.86,-533.7 "/>
<text text-anchor="middle" x="1525.78" y="-517.1" font-family="Courier New" font-size="14.00">uint256: finalAmount (32)</text>
<polyline fill="none" stroke="black" points="1199.76,-508.9 1851.86,-508.9 "/>
<text text-anchor="middle" x="1525.68" y="-492.3" font-family="Courier New" font-size="14.00">uint256: initialAmount (32)</text>
<polyline fill="none" stroke="black" points="1199.76,-484.1 1851.86,-484.1 "/>
<text text-anchor="middle" x="1353.97" y="-467.5" font-family="Courier New" font-size="14.00">unallocated (12)</text>
<polyline fill="none" stroke="black" points="1508.18,-459.3 1508.18,-484.1 "/>
<text text-anchor="middle" x="1679.7" y="-467.5" font-family="Courier New" font-size="14.00">address: sender (20)</text>
<polyline fill="none" stroke="black" points="1199.76,-459.3 1851.86,-459.3 "/>
<text text-anchor="middle" x="1349.97" y="-442.7" font-family="Courier New" font-size="14.00">unallocated (12)</text>
<polyline fill="none" stroke="black" points="1500.18,-434.5 1500.18,-459.3 "/>
<text text-anchor="middle" x="1675.6" y="-442.7" font-family="Courier New" font-size="14.00">address: receiver (20)</text>
</g>
<!-- 3 -->
<g id="node4" class="node">
<title>3</title>
<polygon fill="#f2f2f2" stroke="black" points="1150.16,-217.5 1150.16,-415.9 1851.86,-415.9 1851.86,-217.5 1150.16,-217.5"/>
<text text-anchor="middle" x="1501.01" y="-399.3" font-family="Courier New" font-size="14.00">payments &lt;&lt;Struct&gt;&gt;</text>
<polyline fill="none" stroke="black" points="1150.16,-391.1 1851.86,-391.1 "/>
<text text-anchor="middle" x="1174.96" y="-374.5" font-family="Courier New" font-size="14.00">slot</text>
<polyline fill="none" stroke="black" points="1150.16,-366.3 1199.76,-366.3 "/>
<text text-anchor="middle" x="1174.96" y="-349.7" font-family="Courier New" font-size="14.00">41</text>
<polyline fill="none" stroke="black" points="1150.16,-341.5 1199.76,-341.5 "/>
<text text-anchor="middle" x="1174.96" y="-324.9" font-family="Courier New" font-size="14.00">42</text>
<polyline fill="none" stroke="black" points="1150.16,-316.7 1199.76,-316.7 "/>
<text text-anchor="middle" x="1174.96" y="-300.1" font-family="Courier New" font-size="14.00">43</text>
<polyline fill="none" stroke="black" points="1150.16,-291.9 1199.76,-291.9 "/>
<text text-anchor="middle" x="1174.96" y="-275.3" font-family="Courier New" font-size="14.00">44</text>
<polyline fill="none" stroke="black" points="1150.16,-267.1 1199.76,-267.1 "/>
<text text-anchor="middle" x="1174.96" y="-250.5" font-family="Courier New" font-size="14.00">45</text>
<polyline fill="none" stroke="black" points="1150.16,-242.3 1199.76,-242.3 "/>
<text text-anchor="middle" x="1174.96" y="-225.7" font-family="Courier New" font-size="14.00">46</text>
<polyline fill="none" stroke="black" points="1199.76,-217.5 1199.76,-391.1 "/>
<text text-anchor="middle" x="1525.81" y="-374.5" font-family="Courier New" font-size="14.00">type: variable (bytes)</text>
<polyline fill="none" stroke="black" points="1199.76,-366.3 1851.86,-366.3 "/>
<text text-anchor="middle" x="1274.97" y="-349.7" font-family="Courier New" font-size="14.00">unallocated (29)</text>
<polyline fill="none" stroke="black" points="1350.18,-341.5 1350.18,-366.3 "/>
<text text-anchor="middle" x="1450.6" y="-349.7" font-family="Courier New" font-size="14.00">uint8: paymentType (1)</text>
<polyline fill="none" stroke="black" points="1551.01,-341.5 1551.01,-366.3 "/>
<text text-anchor="middle" x="1630.43" y="-349.7" font-family="Courier New" font-size="14.00">bool: checked (1)</text>
<polyline fill="none" stroke="black" points="1709.84,-341.5 1709.84,-366.3 "/>
<text text-anchor="middle" x="1780.85" y="-349.7" font-family="Courier New" font-size="14.00">bool: valid (1)</text>
<polyline fill="none" stroke="black" points="1199.76,-341.5 1851.86,-341.5 "/>
<text text-anchor="middle" x="1525.78" y="-324.9" font-family="Courier New" font-size="14.00">uint256: amount (32)</text>
<polyline fill="none" stroke="black" points="1199.76,-316.7 1851.86,-316.7 "/>
<text text-anchor="middle" x="1525.78" y="-300.1" font-family="Courier New" font-size="14.00">uint256: finalAmount (32)</text>
<polyline fill="none" stroke="black" points="1199.76,-291.9 1851.86,-291.9 "/>
<text text-anchor="middle" x="1525.68" y="-275.3" font-family="Courier New" font-size="14.00">uint256: initialAmount (32)</text>
<polyline fill="none" stroke="black" points="1199.76,-267.1 1851.86,-267.1 "/>
<text text-anchor="middle" x="1353.97" y="-250.5" font-family="Courier New" font-size="14.00">unallocated (12)</text>
<polyline fill="none" stroke="black" points="1508.18,-242.3 1508.18,-267.1 "/>
<text text-anchor="middle" x="1679.7" y="-250.5" font-family="Courier New" font-size="14.00">address: sender (20)</text>
<polyline fill="none" stroke="black" points="1199.76,-242.3 1851.86,-242.3 "/>
<text text-anchor="middle" x="1349.97" y="-225.7" font-family="Courier New" font-size="14.00">unallocated (12)</text>
<polyline fill="none" stroke="black" points="1500.18,-217.5 1500.18,-242.3 "/>
<text text-anchor="middle" x="1675.6" y="-225.7" font-family="Courier New" font-size="14.00">address: receiver (20)</text>
</g>
<!-- 4 -->
<g id="node5" class="node">
<title>4</title>
<polygon fill="#f2f2f2" stroke="black" points="1150.16,-0.5 1150.16,-198.9 1851.86,-198.9 1851.86,-0.5 1150.16,-0.5"/>
<text text-anchor="middle" x="1501.01" y="-182.3" font-family="Courier New" font-size="14.00">payments &lt;&lt;Struct&gt;&gt;</text>
<polyline fill="none" stroke="black" points="1150.16,-174.1 1851.86,-174.1 "/>
<text text-anchor="middle" x="1174.96" y="-157.5" font-family="Courier New" font-size="14.00">slot</text>
<polyline fill="none" stroke="black" points="1150.16,-149.3 1199.76,-149.3 "/>
<text text-anchor="middle" x="1174.96" y="-132.7" font-family="Courier New" font-size="14.00">47</text>
<polyline fill="none" stroke="black" points="1150.16,-124.5 1199.76,-124.5 "/>
<text text-anchor="middle" x="1174.96" y="-107.9" font-family="Courier New" font-size="14.00">48</text>
<polyline fill="none" stroke="black" points="1150.16,-99.7 1199.76,-99.7 "/>
<text text-anchor="middle" x="1174.96" y="-83.1" font-family="Courier New" font-size="14.00">49</text>
<polyline fill="none" stroke="black" points="1150.16,-74.9 1199.76,-74.9 "/>
<text text-anchor="middle" x="1174.96" y="-58.3" font-family="Courier New" font-size="14.00">50</text>
<polyline fill="none" stroke="black" points="1150.16,-50.1 1199.76,-50.1 "/>
<text text-anchor="middle" x="1174.96" y="-33.5" font-family="Courier New" font-size="14.00">51</text>
<polyline fill="none" stroke="black" points="1150.16,-25.3 1199.76,-25.3 "/>
<text text-anchor="middle" x="1174.96" y="-8.7" font-family="Courier New" font-size="14.00">52</text>
<polyline fill="none" stroke="black" points="1199.76,-0.5 1199.76,-174.1 "/>
<text text-anchor="middle" x="1525.81" y="-157.5" font-family="Courier New" font-size="14.00">type: variable (bytes)</text>
<polyline fill="none" stroke="black" points="1199.76,-149.3 1851.86,-149.3 "/>
<text text-anchor="middle" x="1274.97" y="-132.7" font-family="Courier New" font-size="14.00">unallocated (29)</text>
<polyline fill="none" stroke="black" points="1350.18,-124.5 1350.18,-149.3 "/>
<text text-anchor="middle" x="1450.6" y="-132.7" font-family="Courier New" font-size="14.00">uint8: paymentType (1)</text>
<polyline fill="none" stroke="black" points="1551.01,-124.5 1551.01,-149.3 "/>
<text text-anchor="middle" x="1630.43" y="-132.7" font-family="Courier New" font-size="14.00">bool: checked (1)</text>
<polyline fill="none" stroke="black" points="1709.84,-124.5 1709.84,-149.3 "/>
<text text-anchor="middle" x="1780.85" y="-132.7" font-family="Courier New" font-size="14.00">bool: valid (1)</text>
<polyline fill="none" stroke="black" points="1199.76,-124.5 1851.86,-124.5 "/>
<text text-anchor="middle" x="1525.78" y="-107.9" font-family="Courier New" font-size="14.00">uint256: amount (32)</text>
<polyline fill="none" stroke="black" points="1199.76,-99.7 1851.86,-99.7 "/>
<text text-anchor="middle" x="1525.78" y="-83.1" font-family="Courier New" font-size="14.00">uint256: finalAmount (32)</text>
<polyline fill="none" stroke="black" points="1199.76,-74.9 1851.86,-74.9 "/>
<text text-anchor="middle" x="1525.68" y="-58.3" font-family="Courier New" font-size="14.00">uint256: initialAmount (32)</text>
<polyline fill="none" stroke="black" points="1199.76,-50.1 1851.86,-50.1 "/>
<text text-anchor="middle" x="1353.97" y="-33.5" font-family="Courier New" font-size="14.00">unallocated (12)</text>
<polyline fill="none" stroke="black" points="1508.18,-25.3 1508.18,-50.1 "/>
<text text-anchor="middle" x="1679.7" y="-33.5" font-family="Courier New" font-size="14.00">address: sender (20)</text>
<polyline fill="none" stroke="black" points="1199.76,-25.3 1851.86,-25.3 "/>
<text text-anchor="middle" x="1349.97" y="-8.7" font-family="Courier New" font-size="14.00">unallocated (12)</text>
<polyline fill="none" stroke="black" points="1500.18,-0.5 1500.18,-25.3 "/>
<text text-anchor="middle" x="1675.6" y="-8.7" font-family="Courier New" font-size="14.00">address: receiver (20)</text>
</g>
<!-- 5&#45;&gt;1 -->
<g id="edge2" class="edge">
<title>5:17&#45;&gt;1</title>
<path fill="none" stroke="black" d="M1114.16,-474.7C1190.52,-474.7 1098.6,-586.37 1150.16,-642.7 1150.58,-643.16 1151,-643.61 1151.42,-644.07"/>
<polygon fill="black" stroke="black" points="1148.94,-646.54 1158.43,-651.26 1153.96,-641.65 1148.94,-646.54"/>
</g>
<!-- 5&#45;&gt;2 -->
<g id="edge3" class="edge">
<title>5:18&#45;&gt;2</title>
<path fill="none" stroke="black" d="M1114.16,-449.7C1122.66,-449.7 1131.24,-449.9 1139.87,-450.27"/>
<polygon fill="black" stroke="black" points="1139.87,-453.78 1150.03,-450.79 1140.23,-446.79 1139.87,-453.78"/>
</g>
<!-- 5&#45;&gt;3 -->
<g id="edge4" class="edge">
<title>5:20&#45;&gt;3</title>
<path fill="none" stroke="black" d="M1114.16,-399.7C1122.65,-399.7 1131.23,-399.51 1139.86,-399.13"/>
<polygon fill="black" stroke="black" points="1140.21,-402.62 1150.02,-398.62 1139.85,-395.63 1140.21,-402.62"/>
</g>
<!-- 5&#45;&gt;4 -->
<g id="edge5" class="edge">
<title>5:21&#45;&gt;4</title>
<path fill="none" stroke="black" d="M1114.16,-375.7C1190.52,-375.7 1098.6,-264.03 1150.16,-207.7 1150.58,-207.24 1151,-206.79 1151.42,-206.33"/>
<polygon fill="black" stroke="black" points="1153.96,-208.75 1158.43,-199.14 1148.94,-203.86 1153.96,-208.75"/>
</g>
</g>
</svg>
