<?xml version="1.0" encoding="UTF-8" standalone="no"?>
<!DOCTYPE svg PUBLIC "-//W3C//DTD SVG 1.1//EN"
 "http://www.w3.org/Graphics/SVG/1.1/DTD/svg11.dtd">
<!-- Generated by graphviz version 5.0.0 (20220707.1540)
 -->
<!-- Title: UmlClassDiagram Pages: 1 -->
<svg width="2404pt" height="1222pt"
 viewBox="0.00 0.00 2403.58 1222.20" xmlns="http://www.w3.org/2000/svg" xmlns:xlink="http://www.w3.org/1999/xlink">
<g id="graph0" class="graph" transform="scale(1 1) rotate(0) translate(4 1218.2)">
<title>UmlClassDiagram</title>
<polygon fill="white" stroke="transparent" points="-4,4 -4,-1218.2 2399.58,-1218.2 2399.58,4 -4,4"/>
<!-- 0 -->
<g id="node1" class="node">
<title>0</title>
<polygon fill="#f2f2f2" stroke="black" points="689,-829.9 689,-946.7 857.03,-946.7 857.03,-829.9 689,-829.9"/>
<text text-anchor="middle" x="773.02" y="-930.1" font-family="Times,serif" font-size="14.00">Constants</text>
<text text-anchor="middle" x="773.02" y="-913.3" font-family="Times,serif" font-size="14.00">srcUmlClassDiagramas.sol</text>
<polyline fill="none" stroke="black" points="689,-905.1 857.03,-905.1 "/>
<text text-anchor="start" x="697" y="-888.5" font-family="Times,serif" font-size="14.00">Public:</text>
<text text-anchor="start" x="697" y="-871.7" font-family="Times,serif" font-size="14.00"> &#160;&#160;tradeFlag: uint256</text>
<text text-anchor="start" x="697" y="-854.9" font-family="Times,serif" font-size="14.00"> &#160;&#160;basicFlag: uint256</text>
<text text-anchor="start" x="697" y="-838.1" font-family="Times,serif" font-size="14.00"> &#160;&#160;dividendFlag: uint256</text>
</g>
<!-- 2 -->
<g id="node2" class="node">
<title>2</title>
<polygon fill="#f2f2f2" stroke="black" points="0,-1063.3 0,-1213.7 168.03,-1213.7 168.03,-1063.3 0,-1063.3"/>
<text text-anchor="middle" x="84.02" y="-1197.1" font-family="Times,serif" font-size="14.00">&lt;&lt;Enum&gt;&gt;</text>
<text text-anchor="middle" x="84.02" y="-1180.3" font-family="Times,serif" font-size="14.00">PaymentType</text>
<text text-anchor="middle" x="84.02" y="-1163.5" font-family="Times,serif" font-size="14.00">srcUmlClassDiagramas.sol</text>
<polyline fill="none" stroke="black" points="0,-1155.3 168.03,-1155.3 "/>
<text text-anchor="start" x="8" y="-1138.7" font-family="Times,serif" font-size="14.00">Unknown: 0</text>
<text text-anchor="start" x="8" y="-1121.9" font-family="Times,serif" font-size="14.00">BasicPayment: 1</text>
<text text-anchor="start" x="8" y="-1105.1" font-family="Times,serif" font-size="14.00">Refund: 2</text>
<text text-anchor="start" x="8" y="-1088.3" font-family="Times,serif" font-size="14.00">Dividend: 3</text>
<text text-anchor="start" x="8" y="-1071.5" font-family="Times,serif" font-size="14.00">GroupPayment: 4</text>
</g>
<!-- 1 -->
<g id="node6" class="node">
<title>1</title>
<polygon fill="#f2f2f2" stroke="black" points="161.31,-0.5 161.31,-713.3 826.73,-713.3 826.73,-0.5 161.31,-0.5"/>
<text text-anchor="middle" x="494.02" y="-696.7" font-family="Times,serif" font-size="14.00">GasContract</text>
<text text-anchor="middle" x="494.02" y="-679.9" font-family="Times,serif" font-size="14.00">srcUmlClassDiagramas.sol</text>
<polyline fill="none" stroke="black" points="161.31,-671.7 826.73,-671.7 "/>
<text text-anchor="start" x="169.31" y="-655.1" font-family="Times,serif" font-size="14.00">Public:</text>
<text text-anchor="start" x="169.31" y="-638.3" font-family="Times,serif" font-size="14.00"> &#160;&#160;totalSupply: uint256</text>
<text text-anchor="start" x="169.31" y="-621.5" font-family="Times,serif" font-size="14.00"> &#160;&#160;paymentCounter: uint256</text>
<text text-anchor="start" x="169.31" y="-604.7" font-family="Times,serif" font-size="14.00"> &#160;&#160;balances: mapping(address=&gt;uint256)</text>
<text text-anchor="start" x="169.31" y="-587.9" font-family="Times,serif" font-size="14.00"> &#160;&#160;tradePercent: uint256</text>
<text text-anchor="start" x="169.31" y="-571.1" font-family="Times,serif" font-size="14.00"> &#160;&#160;contractOwner: address</text>
<text text-anchor="start" x="169.31" y="-554.3" font-family="Times,serif" font-size="14.00"> &#160;&#160;tradeMode: uint256</text>
<text text-anchor="start" x="169.31" y="-537.5" font-family="Times,serif" font-size="14.00"> &#160;&#160;payments: mapping(address=&gt;Payment[])</text>
<text text-anchor="start" x="169.31" y="-520.7" font-family="Times,serif" font-size="14.00"> &#160;&#160;whitelist: mapping(address=&gt;uint256)</text>
<text text-anchor="start" x="169.31" y="-503.9" font-family="Times,serif" font-size="14.00"> &#160;&#160;administrators: address[5]</text>
<text text-anchor="start" x="169.31" y="-487.1" font-family="Times,serif" font-size="14.00"> &#160;&#160;isReady: bool</text>
<text text-anchor="start" x="169.31" y="-470.3" font-family="Times,serif" font-size="14.00"> &#160;&#160;defaultPayment: PaymentType</text>
<text text-anchor="start" x="169.31" y="-453.5" font-family="Times,serif" font-size="14.00"> &#160;&#160;paymentHistory: History[]</text>
<text text-anchor="start" x="169.31" y="-436.7" font-family="Times,serif" font-size="14.00"> &#160;&#160;wasLastOdd: uint256</text>
<text text-anchor="start" x="169.31" y="-419.9" font-family="Times,serif" font-size="14.00"> &#160;&#160;isOddWhitelistUser: mapping(address=&gt;uint256)</text>
<text text-anchor="start" x="169.31" y="-403.1" font-family="Times,serif" font-size="14.00"> &#160;&#160;whiteListStruct: mapping(address=&gt;ImportantStruct)</text>
<polyline fill="none" stroke="black" points="161.31,-394.9 826.73,-394.9 "/>
<text text-anchor="start" x="169.31" y="-378.3" font-family="Times,serif" font-size="14.00">External:</text>
<text text-anchor="start" x="169.31" y="-361.5" font-family="Times,serif" font-size="14.00"> &#160;&#160;&#160;&lt;&lt;payable&gt;&gt; null()</text>
<text text-anchor="start" x="169.31" y="-344.7" font-family="Times,serif" font-size="14.00"> &#160;&#160;&#160;&lt;&lt;payable&gt;&gt; null()</text>
<text text-anchor="start" x="169.31" y="-327.9" font-family="Times,serif" font-size="14.00">Public:</text>
<text text-anchor="start" x="169.31" y="-311.1" font-family="Times,serif" font-size="14.00"> &#160;&#160;&#160;&lt;&lt;payable&gt;&gt; getPaymentHistory(): (paymentHistory_: History[])</text>
<text text-anchor="start" x="169.31" y="-294.3" font-family="Times,serif" font-size="14.00"> &#160;&#160;&#160;&lt;&lt;event&gt;&gt; AddedToWhitelist(userAddress: address, tier: uint256)</text>
<text text-anchor="start" x="169.31" y="-277.5" font-family="Times,serif" font-size="14.00"> &#160;&#160;&#160;&lt;&lt;event&gt;&gt; supplyChanged(address, uint256)</text>
<text text-anchor="start" x="169.31" y="-260.7" font-family="Times,serif" font-size="14.00"> &#160;&#160;&#160;&lt;&lt;event&gt;&gt; Transfer(recipient: address, amount: uint256)</text>
<text text-anchor="start" x="169.31" y="-243.9" font-family="Times,serif" font-size="14.00"> &#160;&#160;&#160;&lt;&lt;event&gt;&gt; PaymentUpdated(admin: address, ID: uint256, amount: uint256, recipient: string)</text>
<text text-anchor="start" x="169.31" y="-227.1" font-family="Times,serif" font-size="14.00"> &#160;&#160;&#160;&lt;&lt;event&gt;&gt; WhiteListTransfer(address)</text>
<text text-anchor="start" x="169.31" y="-210.3" font-family="Times,serif" font-size="14.00"> &#160;&#160;&#160;&lt;&lt;modifier&gt;&gt; onlyAdminOrOwner()</text>
<text text-anchor="start" x="169.31" y="-193.5" font-family="Times,serif" font-size="14.00"> &#160;&#160;&#160;&lt;&lt;modifier&gt;&gt; checkIfWhiteListed(sender: address)</text>
<text text-anchor="start" x="169.31" y="-176.7" font-family="Times,serif" font-size="14.00"> &#160;&#160;&#160;constructor(_admins: address[], _totalSupply: uint256)</text>
<text text-anchor="start" x="169.31" y="-159.9" font-family="Times,serif" font-size="14.00"> &#160;&#160;&#160;checkForAdmin(_user: address): (admin_: bool)</text>
<text text-anchor="start" x="169.31" y="-143.1" font-family="Times,serif" font-size="14.00"> &#160;&#160;&#160;balanceOf(_user: address): (balance_: uint256)</text>
<text text-anchor="start" x="169.31" y="-126.3" font-family="Times,serif" font-size="14.00"> &#160;&#160;&#160;getTradingMode(): (mode_: bool)</text>
<text text-anchor="start" x="169.31" y="-109.5" font-family="Times,serif" font-size="14.00"> &#160;&#160;&#160;addHistory(_updateAddress: address, _tradeMode: bool): (status_: bool, tradeMode_: bool)</text>
<text text-anchor="start" x="169.31" y="-92.7" font-family="Times,serif" font-size="14.00"> &#160;&#160;&#160;getPayments(_user: address): (payments_: Payment[])</text>
<text text-anchor="start" x="169.31" y="-75.9" font-family="Times,serif" font-size="14.00"> &#160;&#160;&#160;transfer(_recipient: address, _amount: uint256, _name: string): (status_: bool)</text>
<text text-anchor="start" x="169.31" y="-59.1" font-family="Times,serif" font-size="14.00"> &#160;&#160;&#160;updatePayment(_user: address, _ID: uint256, _amount: uint256, _type: PaymentType) &lt;&lt;onlyAdminOrOwner&gt;&gt;</text>
<text text-anchor="start" x="169.31" y="-42.3" font-family="Times,serif" font-size="14.00"> &#160;&#160;&#160;addToWhitelist(_userAddrs: address, _tier: uint256) &lt;&lt;onlyAdminOrOwner&gt;&gt;</text>
<text text-anchor="start" x="169.31" y="-25.5" font-family="Times,serif" font-size="14.00"> &#160;&#160;&#160;whiteTransfer(_recipient: address, _amount: uint256) &lt;&lt;checkIfWhiteListed&gt;&gt;</text>
<text text-anchor="start" x="169.31" y="-8.7" font-family="Times,serif" font-size="14.00"> &#160;&#160;&#160;getPaymentStatus(sender: address): (bool, uint256)</text>
</g>
<!-- 2&#45;&gt;1 -->
<g id="edge2" class="edge">
<title>2&#45;&gt;1</title>
<path fill="none" stroke="black" d="M81.36,-1063.13C76.93,-982.27 75.51,-851.06 121.02,-749.8 130.68,-728.3 142.05,-707.29 154.71,-686.87"/>
<polygon fill="black" stroke="black" points="154.82,-686.71 154.65,-679.5 161.24,-676.57 161.41,-683.78 154.82,-686.71"/>
</g>
<!-- 3 -->
<g id="node3" class="node">
<title>3</title>
<polygon fill="#f2f2f2" stroke="black" points="120.96,-796.3 120.96,-980.3 299.08,-980.3 299.08,-796.3 120.96,-796.3"/>
<text text-anchor="middle" x="210.02" y="-963.7" font-family="Times,serif" font-size="14.00">&lt;&lt;Struct&gt;&gt;</text>
<text text-anchor="middle" x="210.02" y="-946.9" font-family="Times,serif" font-size="14.00">Payment</text>
<text text-anchor="middle" x="210.02" y="-930.1" font-family="Times,serif" font-size="14.00">srcUmlClassDiagramas.sol</text>
<polyline fill="none" stroke="black" points="120.96,-921.9 299.08,-921.9 "/>
<text text-anchor="start" x="128.96" y="-905.3" font-family="Times,serif" font-size="14.00">paymentType: PaymentType</text>
<text text-anchor="start" x="128.96" y="-888.5" font-family="Times,serif" font-size="14.00">paymentID: uint256</text>
<text text-anchor="start" x="128.96" y="-871.7" font-family="Times,serif" font-size="14.00">adminUpdated: bool</text>
<text text-anchor="start" x="128.96" y="-854.9" font-family="Times,serif" font-size="14.00">recipientName: string</text>
<text text-anchor="start" x="128.96" y="-838.1" font-family="Times,serif" font-size="14.00">recipient: address</text>
<text text-anchor="start" x="128.96" y="-821.3" font-family="Times,serif" font-size="14.00">admin: address</text>
<text text-anchor="start" x="128.96" y="-804.5" font-family="Times,serif" font-size="14.00">amount: uint256</text>
</g>
<!-- 3&#45;&gt;2 -->
<g id="edge1" class="edge">
<title>3&#45;&gt;2</title>
<path fill="none" stroke="black" stroke-dasharray="5,2" d="M163.81,-980.31C151.54,-1004.48 138.36,-1030.45 126.31,-1054.19"/>
<polygon fill="black" stroke="black" points="123.16,-1052.66 121.75,-1063.17 129.4,-1055.83 123.16,-1052.66"/>
</g>
<!-- 3&#45;&gt;1 -->
<g id="edge3" class="edge">
<title>3&#45;&gt;1</title>
<path fill="none" stroke="black" d="M264.28,-795.93C276.28,-774.39 289.65,-750.12 303.73,-724.33"/>
<polygon fill="black" stroke="black" points="303.84,-724.12 303.2,-716.94 309.59,-713.59 310.23,-720.77 303.84,-724.12"/>
</g>
<!-- 4 -->
<g id="node4" class="node">
<title>4</title>
<polygon fill="#f2f2f2" stroke="black" points="317,-829.9 317,-946.7 485.03,-946.7 485.03,-829.9 317,-829.9"/>
<text text-anchor="middle" x="401.02" y="-930.1" font-family="Times,serif" font-size="14.00">&lt;&lt;Struct&gt;&gt;</text>
<text text-anchor="middle" x="401.02" y="-913.3" font-family="Times,serif" font-size="14.00">History</text>
<text text-anchor="middle" x="401.02" y="-896.5" font-family="Times,serif" font-size="14.00">srcUmlClassDiagramas.sol</text>
<polyline fill="none" stroke="black" points="317,-888.3 485.03,-888.3 "/>
<text text-anchor="start" x="325" y="-871.7" font-family="Times,serif" font-size="14.00">lastUpdate: uint256</text>
<text text-anchor="start" x="325" y="-854.9" font-family="Times,serif" font-size="14.00">updatedBy: address</text>
<text text-anchor="start" x="325" y="-838.1" font-family="Times,serif" font-size="14.00">blockNumber: uint256</text>
</g>
<!-- 4&#45;&gt;1 -->
<g id="edge4" class="edge">
<title>4&#45;&gt;1</title>
<path fill="none" stroke="black" d="M415.55,-829.61C421.33,-801.62 428.32,-765.41 435.71,-725.51"/>
<polygon fill="black" stroke="black" points="435.73,-725.39 432.89,-718.76 437.91,-713.59 440.76,-720.21 435.73,-725.39"/>
</g>
<!-- 5 -->
<g id="node5" class="node">
<title>5</title>
<polygon fill="#f2f2f2" stroke="black" points="503,-804.7 503,-971.9 671.03,-971.9 671.03,-804.7 503,-804.7"/>
<text text-anchor="middle" x="587.02" y="-955.3" font-family="Times,serif" font-size="14.00">&lt;&lt;Struct&gt;&gt;</text>
<text text-anchor="middle" x="587.02" y="-938.5" font-family="Times,serif" font-size="14.00">ImportantStruct</text>
<text text-anchor="middle" x="587.02" y="-921.7" font-family="Times,serif" font-size="14.00">srcUmlClassDiagramas.sol</text>
<polyline fill="none" stroke="black" points="503,-913.5 671.03,-913.5 "/>
<text text-anchor="start" x="511" y="-896.9" font-family="Times,serif" font-size="14.00">amount: uint256</text>
<text text-anchor="start" x="511" y="-880.1" font-family="Times,serif" font-size="14.00">valueA: uint256</text>
<text text-anchor="start" x="511" y="-863.3" font-family="Times,serif" font-size="14.00">bigValue: uint256</text>
<text text-anchor="start" x="511" y="-846.5" font-family="Times,serif" font-size="14.00">valueB: uint256</text>
<text text-anchor="start" x="511" y="-829.7" font-family="Times,serif" font-size="14.00">paymentStatus: bool</text>
<text text-anchor="start" x="511" y="-812.9" font-family="Times,serif" font-size="14.00">sender: address</text>
</g>
<!-- 5&#45;&gt;1 -->
<g id="edge5" class="edge">
<title>5&#45;&gt;1</title>
<path fill="none" stroke="black" d="M577.54,-804.56C573.98,-781.3 569.67,-754.42 564.88,-725.6"/>
<polygon fill="black" stroke="black" points="564.85,-725.42 559.92,-720.16 562.88,-713.59 567.81,-718.85 564.85,-725.42"/>
</g>
<!-- 1&#45;&gt;0 -->
<g id="edge7" class="edge">
<title>1&#45;&gt;0</title>
<path fill="none" stroke="black" d="M681.47,-713.59C698.63,-746.16 714.7,-776.64 728.43,-802.7"/>
<polygon fill="none" stroke="black" points="719.34,-807.97 742.61,-829.61 737.92,-798.18 719.34,-807.97"/>
</g>
<!-- 1&#45;&gt;2 -->
<g id="edge8" class="edge">
<title>1&#45;&gt;2</title>
<path fill="none" stroke="black" d="M161.17,-650.35C138.51,-681.94 118.55,-715.24 103.02,-749.8 59.38,-846.9 58.89,-971.55 67.05,-1052.93"/>
<polygon fill="black" stroke="black" points="63.59,-1053.56 68.14,-1063.13 70.55,-1052.81 63.59,-1053.56"/>
</g>
<!-- 1&#45;&gt;3 -->
<g id="edge11" class="edge">
<title>1&#45;&gt;3</title>
<path fill="none" stroke="black" stroke-dasharray="5,2" d="M296.82,-713.59C283,-739.77 269.99,-764.6 258.46,-786.87"/>
<polygon fill="black" stroke="black" points="255.27,-785.43 253.78,-795.93 261.49,-788.65 255.27,-785.43"/>
</g>
<!-- 1&#45;&gt;4 -->
<g id="edge9" class="edge">
<title>1&#45;&gt;4</title>
<path fill="none" stroke="black" d="M425.15,-713.59C418.48,-753.48 412.58,-790.23 408.22,-819.56"/>
<polygon fill="black" stroke="black" points="404.74,-819.21 406.75,-829.61 411.66,-820.23 404.74,-819.21"/>
</g>
<!-- 1&#45;&gt;5 -->
<g id="edge10" class="edge">
<title>1&#45;&gt;5</title>
<path fill="none" stroke="black" d="M550.12,-713.59C555.51,-742.9 560.73,-770.52 565.48,-794.74"/>
<polygon fill="black" stroke="black" points="562.05,-795.42 567.42,-804.56 568.92,-794.07 562.05,-795.42"/>
</g>
<!-- 13 -->
<g id="node14" class="node">
<title>13</title>
<polygon fill="#f2f2f2" stroke="black" points="874.55,-750.3 874.55,-1026.3 1359.48,-1026.3 1359.48,-750.3 874.55,-750.3"/>
<text text-anchor="middle" x="1117.02" y="-1009.7" font-family="Times,serif" font-size="14.00">&lt;&lt;Abstract&gt;&gt;</text>
<text text-anchor="middle" x="1117.02" y="-992.9" font-family="Times,serif" font-size="14.00">Ownable</text>
<text text-anchor="middle" x="1117.02" y="-976.1" font-family="Times,serif" font-size="14.00">srcOwnable.sol</text>
<polyline fill="none" stroke="black" points="874.55,-967.9 1359.48,-967.9 "/>
<text text-anchor="start" x="882.55" y="-951.3" font-family="Times,serif" font-size="14.00">Private:</text>
<text text-anchor="start" x="882.55" y="-934.5" font-family="Times,serif" font-size="14.00"> &#160;&#160;_owner: address</text>
<polyline fill="none" stroke="black" points="874.55,-926.3 1359.48,-926.3 "/>
<text text-anchor="start" x="882.55" y="-909.7" font-family="Times,serif" font-size="14.00">Internal:</text>
<text text-anchor="start" x="882.55" y="-892.9" font-family="Times,serif" font-size="14.00"> &#160;&#160;&#160;_checkOwner()</text>
<text text-anchor="start" x="882.55" y="-876.1" font-family="Times,serif" font-size="14.00"> &#160;&#160;&#160;_transferOwnership(newOwner: address)</text>
<text text-anchor="start" x="882.55" y="-859.3" font-family="Times,serif" font-size="14.00">Public:</text>
<text text-anchor="start" x="882.55" y="-842.5" font-family="Times,serif" font-size="14.00"> &#160;&#160;&#160;&lt;&lt;event&gt;&gt; OwnershipTransferred(previousOwner: address, newOwner: address)</text>
<text text-anchor="start" x="882.55" y="-825.7" font-family="Times,serif" font-size="14.00"> &#160;&#160;&#160;&lt;&lt;modifier&gt;&gt; onlyOwner()</text>
<text text-anchor="start" x="882.55" y="-808.9" font-family="Times,serif" font-size="14.00"> &#160;&#160;&#160;constructor()</text>
<text text-anchor="start" x="882.55" y="-792.1" font-family="Times,serif" font-size="14.00"> &#160;&#160;&#160;owner(): address</text>
<text text-anchor="start" x="882.55" y="-775.3" font-family="Times,serif" font-size="14.00"> &#160;&#160;&#160;renounceOwnership() &lt;&lt;onlyOwner&gt;&gt;</text>
<text text-anchor="start" x="882.55" y="-758.5" font-family="Times,serif" font-size="14.00"> &#160;&#160;&#160;transferOwnership(newOwner: address) &lt;&lt;onlyOwner&gt;&gt;</text>
</g>
<!-- 1&#45;&gt;13 -->
<g id="edge6" class="edge">
<title>1&#45;&gt;13</title>
<path fill="none" stroke="black" d="M826.95,-640.81C863.13,-671.56 898.92,-701.97 932.37,-730.39"/>
<polygon fill="none" stroke="black" points="926.03,-738.79 955.69,-750.21 939.63,-722.79 926.03,-738.79"/>
</g>
<!-- 6 -->
<g id="node7" class="node">
<title>6</title>
<polygon fill="#f2f2f2" stroke="black" points="2168.45,-829.9 2168.45,-946.7 2395.58,-946.7 2395.58,-829.9 2168.45,-829.9"/>
<text text-anchor="middle" x="2282.02" y="-930.1" font-family="Times,serif" font-size="14.00">Constants</text>
<text text-anchor="middle" x="2282.02" y="-913.3" font-family="Times,serif" font-size="14.00">srcUmlClassDiagramasOptimized.sol</text>
<polyline fill="none" stroke="black" points="2168.45,-905.1 2395.58,-905.1 "/>
<text text-anchor="start" x="2176.45" y="-888.5" font-family="Times,serif" font-size="14.00">Public:</text>
<text text-anchor="start" x="2176.45" y="-871.7" font-family="Times,serif" font-size="14.00"> &#160;&#160;tradeFlag: uint256</text>
<text text-anchor="start" x="2176.45" y="-854.9" font-family="Times,serif" font-size="14.00"> &#160;&#160;basicFlag: uint256</text>
<text text-anchor="start" x="2176.45" y="-838.1" font-family="Times,serif" font-size="14.00"> &#160;&#160;dividendFlag: uint256</text>
</g>
<!-- 8 -->
<g id="node8" class="node">
<title>8</title>
<polygon fill="#f2f2f2" stroke="black" points="1282.45,-1063.3 1282.45,-1213.7 1509.58,-1213.7 1509.58,-1063.3 1282.45,-1063.3"/>
<text text-anchor="middle" x="1396.02" y="-1197.1" font-family="Times,serif" font-size="14.00">&lt;&lt;Enum&gt;&gt;</text>
<text text-anchor="middle" x="1396.02" y="-1180.3" font-family="Times,serif" font-size="14.00">PaymentType</text>
<text text-anchor="middle" x="1396.02" y="-1163.5" font-family="Times,serif" font-size="14.00">srcUmlClassDiagramasOptimized.sol</text>
<polyline fill="none" stroke="black" points="1282.45,-1155.3 1509.58,-1155.3 "/>
<text text-anchor="start" x="1290.45" y="-1138.7" font-family="Times,serif" font-size="14.00">Unknown: 0</text>
<text text-anchor="start" x="1290.45" y="-1121.9" font-family="Times,serif" font-size="14.00">BasicPayment: 1</text>
<text text-anchor="start" x="1290.45" y="-1105.1" font-family="Times,serif" font-size="14.00">Refund: 2</text>
<text text-anchor="start" x="1290.45" y="-1088.3" font-family="Times,serif" font-size="14.00">Dividend: 3</text>
<text text-anchor="start" x="1290.45" y="-1071.5" font-family="Times,serif" font-size="14.00">GroupPayment: 4</text>
</g>
<!-- 7 -->
<g id="node12" class="node">
<title>7</title>
<polygon fill="#f2f2f2" stroke="black" points="1336.31,-0.5 1336.31,-713.3 2001.73,-713.3 2001.73,-0.5 1336.31,-0.5"/>
<text text-anchor="middle" x="1669.02" y="-696.7" font-family="Times,serif" font-size="14.00">GasContract</text>
<text text-anchor="middle" x="1669.02" y="-679.9" font-family="Times,serif" font-size="14.00">srcUmlClassDiagramasOptimized.sol</text>
<polyline fill="none" stroke="black" points="1336.31,-671.7 2001.73,-671.7 "/>
<text text-anchor="start" x="1344.31" y="-655.1" font-family="Times,serif" font-size="14.00">Public:</text>
<text text-anchor="start" x="1344.31" y="-638.3" font-family="Times,serif" font-size="14.00"> &#160;&#160;totalSupply: uint256</text>
<text text-anchor="start" x="1344.31" y="-621.5" font-family="Times,serif" font-size="14.00"> &#160;&#160;paymentCounter: uint256</text>
<text text-anchor="start" x="1344.31" y="-604.7" font-family="Times,serif" font-size="14.00"> &#160;&#160;tradePercent: uint256</text>
<text text-anchor="start" x="1344.31" y="-587.9" font-family="Times,serif" font-size="14.00"> &#160;&#160;tradeMode: uint256</text>
<text text-anchor="start" x="1344.31" y="-571.1" font-family="Times,serif" font-size="14.00"> &#160;&#160;balances: mapping(address=&gt;uint256)</text>
<text text-anchor="start" x="1344.31" y="-554.3" font-family="Times,serif" font-size="14.00"> &#160;&#160;payments: mapping(address=&gt;Payment[])</text>
<text text-anchor="start" x="1344.31" y="-537.5" font-family="Times,serif" font-size="14.00"> &#160;&#160;whitelist: mapping(address=&gt;uint256)</text>
<text text-anchor="start" x="1344.31" y="-520.7" font-family="Times,serif" font-size="14.00"> &#160;&#160;contractOwner: address</text>
<text text-anchor="start" x="1344.31" y="-503.9" font-family="Times,serif" font-size="14.00"> &#160;&#160;administrators: address[5]</text>
<text text-anchor="start" x="1344.31" y="-487.1" font-family="Times,serif" font-size="14.00"> &#160;&#160;isReady: bool</text>
<text text-anchor="start" x="1344.31" y="-470.3" font-family="Times,serif" font-size="14.00"> &#160;&#160;defaultPayment: PaymentType</text>
<text text-anchor="start" x="1344.31" y="-453.5" font-family="Times,serif" font-size="14.00"> &#160;&#160;paymentHistory: History[]</text>
<text text-anchor="start" x="1344.31" y="-436.7" font-family="Times,serif" font-size="14.00"> &#160;&#160;wasLastOdd: uint256</text>
<text text-anchor="start" x="1344.31" y="-419.9" font-family="Times,serif" font-size="14.00"> &#160;&#160;isOddWhitelistUser: mapping(address=&gt;uint256)</text>
<text text-anchor="start" x="1344.31" y="-403.1" font-family="Times,serif" font-size="14.00"> &#160;&#160;whiteListStruct: mapping(address=&gt;ImportantStruct)</text>
<polyline fill="none" stroke="black" points="1336.31,-394.9 2001.73,-394.9 "/>
<text text-anchor="start" x="1344.31" y="-378.3" font-family="Times,serif" font-size="14.00">External:</text>
<text text-anchor="start" x="1344.31" y="-361.5" font-family="Times,serif" font-size="14.00"> &#160;&#160;&#160;&lt;&lt;payable&gt;&gt; null()</text>
<text text-anchor="start" x="1344.31" y="-344.7" font-family="Times,serif" font-size="14.00"> &#160;&#160;&#160;&lt;&lt;payable&gt;&gt; null()</text>
<text text-anchor="start" x="1344.31" y="-327.9" font-family="Times,serif" font-size="14.00">Public:</text>
<text text-anchor="start" x="1344.31" y="-311.1" font-family="Times,serif" font-size="14.00"> &#160;&#160;&#160;&lt;&lt;payable&gt;&gt; getPaymentHistory(): (paymentHistory_: History[])</text>
<text text-anchor="start" x="1344.31" y="-294.3" font-family="Times,serif" font-size="14.00"> &#160;&#160;&#160;&lt;&lt;event&gt;&gt; AddedToWhitelist(userAddress: address, tier: uint256)</text>
<text text-anchor="start" x="1344.31" y="-277.5" font-family="Times,serif" font-size="14.00"> &#160;&#160;&#160;&lt;&lt;event&gt;&gt; supplyChanged(address, uint256)</text>
<text text-anchor="start" x="1344.31" y="-260.7" font-family="Times,serif" font-size="14.00"> &#160;&#160;&#160;&lt;&lt;event&gt;&gt; Transfer(recipient: address, amount: uint256)</text>
<text text-anchor="start" x="1344.31" y="-243.9" font-family="Times,serif" font-size="14.00"> &#160;&#160;&#160;&lt;&lt;event&gt;&gt; PaymentUpdated(admin: address, ID: uint256, amount: uint256, recipient: string)</text>
<text text-anchor="start" x="1344.31" y="-227.1" font-family="Times,serif" font-size="14.00"> &#160;&#160;&#160;&lt;&lt;event&gt;&gt; WhiteListTransfer(address)</text>
<text text-anchor="start" x="1344.31" y="-210.3" font-family="Times,serif" font-size="14.00"> &#160;&#160;&#160;&lt;&lt;modifier&gt;&gt; onlyAdminOrOwner()</text>
<text text-anchor="start" x="1344.31" y="-193.5" font-family="Times,serif" font-size="14.00"> &#160;&#160;&#160;&lt;&lt;modifier&gt;&gt; checkIfWhiteListed(sender: address)</text>
<text text-anchor="start" x="1344.31" y="-176.7" font-family="Times,serif" font-size="14.00"> &#160;&#160;&#160;constructor(_admins: address[], _totalSupply: uint256)</text>
<text text-anchor="start" x="1344.31" y="-159.9" font-family="Times,serif" font-size="14.00"> &#160;&#160;&#160;checkForAdmin(_user: address): (admin_: bool)</text>
<text text-anchor="start" x="1344.31" y="-143.1" font-family="Times,serif" font-size="14.00"> &#160;&#160;&#160;balanceOf(_user: address): (balance_: uint256)</text>
<text text-anchor="start" x="1344.31" y="-126.3" font-family="Times,serif" font-size="14.00"> &#160;&#160;&#160;getTradingMode(): (mode_: bool)</text>
<text text-anchor="start" x="1344.31" y="-109.5" font-family="Times,serif" font-size="14.00"> &#160;&#160;&#160;addHistory(_updateAddress: address, _tradeMode: bool): (status_: bool, tradeMode_: bool)</text>
<text text-anchor="start" x="1344.31" y="-92.7" font-family="Times,serif" font-size="14.00"> &#160;&#160;&#160;getPayments(_user: address): (payments_: Payment[])</text>
<text text-anchor="start" x="1344.31" y="-75.9" font-family="Times,serif" font-size="14.00"> &#160;&#160;&#160;transfer(_recipient: address, _amount: uint256, _name: string): (status_: bool)</text>
<text text-anchor="start" x="1344.31" y="-59.1" font-family="Times,serif" font-size="14.00"> &#160;&#160;&#160;updatePayment(_user: address, _ID: uint256, _amount: uint256, _type: PaymentType) &lt;&lt;onlyAdminOrOwner&gt;&gt;</text>
<text text-anchor="start" x="1344.31" y="-42.3" font-family="Times,serif" font-size="14.00"> &#160;&#160;&#160;addToWhitelist(_userAddrs: address, _tier: uint256) &lt;&lt;onlyAdminOrOwner&gt;&gt;</text>
<text text-anchor="start" x="1344.31" y="-25.5" font-family="Times,serif" font-size="14.00"> &#160;&#160;&#160;whiteTransfer(_recipient: address, _amount: uint256) &lt;&lt;checkIfWhiteListed&gt;&gt;</text>
<text text-anchor="start" x="1344.31" y="-8.7" font-family="Times,serif" font-size="14.00"> &#160;&#160;&#160;getPaymentStatus(sender: address): (bool, uint256)</text>
</g>
<!-- 8&#45;&gt;7 -->
<g id="edge13" class="edge">
<title>8&#45;&gt;7</title>
<path fill="none" stroke="black" d="M1397.59,-1062.95C1396.87,-983.35 1398.84,-854.53 1433.02,-749.8 1435.73,-741.47 1438.66,-733.15 1441.78,-724.83"/>
<polygon fill="black" stroke="black" points="1441.83,-724.7 1440.26,-717.66 1446.15,-713.5 1447.73,-720.54 1441.83,-724.7"/>
</g>
<!-- 9 -->
<g id="node9" class="node">
<title>9</title>
<polygon fill="#f2f2f2" stroke="black" points="1433.45,-796.3 1433.45,-980.3 1660.58,-980.3 1660.58,-796.3 1433.45,-796.3"/>
<text text-anchor="middle" x="1547.02" y="-963.7" font-family="Times,serif" font-size="14.00">&lt;&lt;Struct&gt;&gt;</text>
<text text-anchor="middle" x="1547.02" y="-946.9" font-family="Times,serif" font-size="14.00">Payment</text>
<text text-anchor="middle" x="1547.02" y="-930.1" font-family="Times,serif" font-size="14.00">srcUmlClassDiagramasOptimized.sol</text>
<polyline fill="none" stroke="black" points="1433.45,-921.9 1660.58,-921.9 "/>
<text text-anchor="start" x="1441.45" y="-905.3" font-family="Times,serif" font-size="14.00">paymentType: PaymentType</text>
<text text-anchor="start" x="1441.45" y="-888.5" font-family="Times,serif" font-size="14.00">paymentID: uint256</text>
<text text-anchor="start" x="1441.45" y="-871.7" font-family="Times,serif" font-size="14.00">amount: uint256</text>
<text text-anchor="start" x="1441.45" y="-854.9" font-family="Times,serif" font-size="14.00">recipientName: string</text>
<text text-anchor="start" x="1441.45" y="-838.1" font-family="Times,serif" font-size="14.00">recipient: address</text>
<text text-anchor="start" x="1441.45" y="-821.3" font-family="Times,serif" font-size="14.00">admin: address</text>
<text text-anchor="start" x="1441.45" y="-804.5" font-family="Times,serif" font-size="14.00">adminUpdated: bool</text>
</g>
<!-- 9&#45;&gt;8 -->
<g id="edge12" class="edge">
<title>9&#45;&gt;8</title>
<path fill="none" stroke="black" stroke-dasharray="5,2" d="M1491.65,-980.31C1476.88,-1004.59 1461,-1030.68 1446.51,-1054.5"/>
<polygon fill="black" stroke="black" points="1443.45,-1052.8 1441.24,-1063.17 1449.43,-1056.44 1443.45,-1052.8"/>
</g>
<!-- 9&#45;&gt;7 -->
<g id="edge14" class="edge">
<title>9&#45;&gt;7</title>
<path fill="none" stroke="black" d="M1573.32,-795.93C1578.66,-774.68 1584.51,-750.77 1590.61,-725.36"/>
<polygon fill="black" stroke="black" points="1590.63,-725.26 1588.14,-718.49 1593.43,-713.59 1595.92,-720.35 1590.63,-725.26"/>
</g>
<!-- 10 -->
<g id="node10" class="node">
<title>10</title>
<polygon fill="#f2f2f2" stroke="black" points="1678.45,-829.9 1678.45,-946.7 1905.58,-946.7 1905.58,-829.9 1678.45,-829.9"/>
<text text-anchor="middle" x="1792.02" y="-930.1" font-family="Times,serif" font-size="14.00">&lt;&lt;Struct&gt;&gt;</text>
<text text-anchor="middle" x="1792.02" y="-913.3" font-family="Times,serif" font-size="14.00">History</text>
<text text-anchor="middle" x="1792.02" y="-896.5" font-family="Times,serif" font-size="14.00">srcUmlClassDiagramasOptimized.sol</text>
<polyline fill="none" stroke="black" points="1678.45,-888.3 1905.58,-888.3 "/>
<text text-anchor="start" x="1686.45" y="-871.7" font-family="Times,serif" font-size="14.00">lastUpdate: uint256</text>
<text text-anchor="start" x="1686.45" y="-854.9" font-family="Times,serif" font-size="14.00">blockNumber: uint256</text>
<text text-anchor="start" x="1686.45" y="-838.1" font-family="Times,serif" font-size="14.00">updatedBy: address</text>
</g>
<!-- 10&#45;&gt;7 -->
<g id="edge15" class="edge">
<title>10&#45;&gt;7</title>
<path fill="none" stroke="black" d="M1783.01,-829.61C1777.37,-801.62 1769.58,-765.41 1760.7,-725.51"/>
<polygon fill="black" stroke="black" points="1760.65,-725.3 1755.44,-720.32 1758.04,-713.59 1763.25,-718.57 1760.65,-725.3"/>
</g>
<!-- 11 -->
<g id="node11" class="node">
<title>11</title>
<polygon fill="#f2f2f2" stroke="black" points="1923.45,-804.7 1923.45,-971.9 2150.58,-971.9 2150.58,-804.7 1923.45,-804.7"/>
<text text-anchor="middle" x="2037.02" y="-955.3" font-family="Times,serif" font-size="14.00">&lt;&lt;Struct&gt;&gt;</text>
<text text-anchor="middle" x="2037.02" y="-938.5" font-family="Times,serif" font-size="14.00">ImportantStruct</text>
<text text-anchor="middle" x="2037.02" y="-921.7" font-family="Times,serif" font-size="14.00">srcUmlClassDiagramasOptimized.sol</text>
<polyline fill="none" stroke="black" points="1923.45,-913.5 2150.58,-913.5 "/>
<text text-anchor="start" x="1931.45" y="-896.9" font-family="Times,serif" font-size="14.00">amount: uint256</text>
<text text-anchor="start" x="1931.45" y="-880.1" font-family="Times,serif" font-size="14.00">valueA: uint256</text>
<text text-anchor="start" x="1931.45" y="-863.3" font-family="Times,serif" font-size="14.00">bigValue: uint256</text>
<text text-anchor="start" x="1931.45" y="-846.5" font-family="Times,serif" font-size="14.00">valueB: uint256</text>
<text text-anchor="start" x="1931.45" y="-829.7" font-family="Times,serif" font-size="14.00">paymentStatus: bool</text>
<text text-anchor="start" x="1931.45" y="-812.9" font-family="Times,serif" font-size="14.00">sender: address</text>
</g>
<!-- 11&#45;&gt;7 -->
<g id="edge16" class="edge">
<title>11&#45;&gt;7</title>
<path fill="none" stroke="black" d="M1984.56,-804.56C1968.58,-780.78 1949.82,-753.22 1929.57,-723.68"/>
<polygon fill="black" stroke="black" points="1929.44,-723.48 1922.74,-720.8 1922.65,-713.59 1929.34,-716.27 1929.44,-723.48"/>
</g>
<!-- 7&#45;&gt;6 -->
<g id="edge18" class="edge">
<title>7&#45;&gt;6</title>
<path fill="none" stroke="black" d="M2001.77,-610.69C2056.01,-655.5 2110.57,-702.87 2160.02,-749.8 2178.71,-767.55 2197.76,-787.78 2215.07,-807.17"/>
<polygon fill="none" stroke="black" points="2207.17,-814.09 2234.83,-829.76 2222.98,-800.27 2207.17,-814.09"/>
</g>
<!-- 7&#45;&gt;8 -->
<g id="edge19" class="edge">
<title>7&#45;&gt;8</title>
<path fill="none" stroke="black" d="M1428.16,-713.5C1423.37,-725.58 1418.97,-737.69 1415.02,-749.8 1382.24,-850.24 1379.08,-972.82 1383.63,-1052.91"/>
<polygon fill="black" stroke="black" points="1380.14,-1053.18 1384.25,-1062.95 1387.13,-1052.75 1380.14,-1053.18"/>
</g>
<!-- 7&#45;&gt;9 -->
<g id="edge22" class="edge">
<title>7&#45;&gt;9</title>
<path fill="none" stroke="black" stroke-dasharray="5,2" d="M1580.67,-713.59C1574.93,-739.42 1569.59,-763.94 1564.92,-785.98"/>
<polygon fill="black" stroke="black" points="1561.46,-785.42 1562.82,-795.93 1568.31,-786.86 1561.46,-785.42"/>
</g>
<!-- 7&#45;&gt;10 -->
<g id="edge20" class="edge">
<title>7&#45;&gt;10</title>
<path fill="none" stroke="black" d="M1745.27,-713.59C1754.88,-753.48 1763.98,-790.23 1771.58,-819.56"/>
<polygon fill="black" stroke="black" points="1768.3,-820.82 1774.21,-829.61 1775.07,-819.05 1768.3,-820.82"/>
</g>
<!-- 7&#45;&gt;11 -->
<g id="edge21" class="edge">
<title>7&#45;&gt;11</title>
<path fill="none" stroke="black" d="M1909.88,-713.59C1930.96,-743.55 1950.94,-771.75 1968.55,-796.35"/>
<polygon fill="black" stroke="black" points="1965.76,-798.47 1974.43,-804.56 1971.45,-794.39 1965.76,-798.47"/>
</g>
<!-- 7&#45;&gt;13 -->
<g id="edge17" class="edge">
<title>7&#45;&gt;13</title>
<path fill="none" stroke="black" d="M1335.97,-677.31C1317.4,-695.12 1299.19,-712.58 1281.7,-729.36"/>
<polygon fill="none" stroke="black" points="1274.33,-721.88 1259.95,-750.22 1288.87,-737.03 1274.33,-721.88"/>
</g>
<!-- 12 -->
<g id="node13" class="node">
<title>12</title>
<polygon fill="#f2f2f2" stroke="black" points="1038.06,-1080.1 1038.06,-1196.9 1195.97,-1196.9 1195.97,-1080.1 1038.06,-1080.1"/>
<text text-anchor="middle" x="1117.02" y="-1180.3" font-family="Times,serif" font-size="14.00">&lt;&lt;Abstract&gt;&gt;</text>
<text text-anchor="middle" x="1117.02" y="-1163.5" font-family="Times,serif" font-size="14.00">Context</text>
<text text-anchor="middle" x="1117.02" y="-1146.7" font-family="Times,serif" font-size="14.00">srcOwnable.sol</text>
<polyline fill="none" stroke="black" points="1038.06,-1138.5 1195.97,-1138.5 "/>
<text text-anchor="start" x="1046.06" y="-1121.9" font-family="Times,serif" font-size="14.00">Internal:</text>
<text text-anchor="start" x="1046.06" y="-1105.1" font-family="Times,serif" font-size="14.00"> &#160;&#160;&#160;_msgSender(): address</text>
<text text-anchor="start" x="1046.06" y="-1088.3" font-family="Times,serif" font-size="14.00"> &#160;&#160;&#160;_msgData(): bytes</text>
</g>
<!-- 13&#45;&gt;12 -->
<g id="edge23" class="edge">
<title>13&#45;&gt;12</title>
<path fill="none" stroke="black" d="M1117.02,-1026.47C1117.02,-1034.41 1117.02,-1042.29 1117.02,-1049.96"/>
<polygon fill="none" stroke="black" points="1106.52,-1049.99 1117.02,-1079.99 1127.52,-1049.99 1106.52,-1049.99"/>
</g>
</g>
</svg>
