<?xml version="1.0" encoding="UTF-8" standalone="no"?>
<!DOCTYPE svg PUBLIC "-//W3C//DTD SVG 1.1//EN"
 "http://www.w3.org/Graphics/SVG/1.1/DTD/svg11.dtd">
<!-- Generated by graphviz version 5.0.0 (20220707.1540)
 -->
<!-- Title: StorageDiagram Pages: 1 -->
<svg width="1797pt" height="701pt"
 viewBox="0.00 0.00 1796.66 700.80" xmlns="http://www.w3.org/2000/svg" xmlns:xlink="http://www.w3.org/1999/xlink">
<g id="graph0" class="graph" transform="scale(1 1) rotate(0) translate(4 696.8)">
<title>StorageDiagram</title>
<polygon fill="white" stroke="transparent" points="-4,4 -4,-696.8 1792.66,-696.8 1792.66,4 -4,4"/>
<!-- 6 -->
<g id="node1" class="node">
<title>6</title>
<polygon fill="#f2f2f2" stroke="black" points="0,-196.3 0,-692.3 536.08,-692.3 536.08,-196.3 0,-196.3"/>
<text text-anchor="middle" x="268.04" y="-675.7" font-family="Courier New" font-size="14.00">GasContractOptimized &lt;&lt;Contract&gt;&gt;</text>
<polyline fill="none" stroke="black" points="0,-667.5 536.08,-667.5 "/>
<text text-anchor="middle" x="29" y="-650.9" font-family="Courier New" font-size="14.00">slot</text>
<polyline fill="none" stroke="black" points="0,-642.7 58.01,-642.7 "/>
<text text-anchor="middle" x="29" y="-626.1" font-family="Courier New" font-size="14.00">0</text>
<polyline fill="none" stroke="black" points="0,-617.9 58.01,-617.9 "/>
<text text-anchor="middle" x="29" y="-601.3" font-family="Courier New" font-size="14.00">1</text>
<polyline fill="none" stroke="black" points="0,-593.1 58.01,-593.1 "/>
<text text-anchor="middle" x="29" y="-576.5" font-family="Courier New" font-size="14.00">2</text>
<polyline fill="none" stroke="black" points="0,-568.3 58.01,-568.3 "/>
<text text-anchor="middle" x="29" y="-551.7" font-family="Courier New" font-size="14.00">3</text>
<polyline fill="none" stroke="black" points="0,-543.5 58.01,-543.5 "/>
<text text-anchor="middle" x="29" y="-526.9" font-family="Courier New" font-size="14.00">4</text>
<polyline fill="none" stroke="black" points="0,-518.7 58.01,-518.7 "/>
<text text-anchor="middle" x="29" y="-502.1" font-family="Courier New" font-size="14.00">5</text>
<polyline fill="none" stroke="black" points="0,-493.9 58.01,-493.9 "/>
<text text-anchor="middle" x="29" y="-477.3" font-family="Courier New" font-size="14.00">6</text>
<polyline fill="none" stroke="black" points="0,-469.1 58.01,-469.1 "/>
<text text-anchor="middle" x="29" y="-452.5" font-family="Courier New" font-size="14.00">7</text>
<polyline fill="none" stroke="black" points="0,-444.3 58.01,-444.3 "/>
<text text-anchor="middle" x="29" y="-427.7" font-family="Courier New" font-size="14.00">8</text>
<polyline fill="none" stroke="black" points="0,-419.5 58.01,-419.5 "/>
<text text-anchor="middle" x="29" y="-402.9" font-family="Courier New" font-size="14.00">9</text>
<polyline fill="none" stroke="black" points="0,-394.7 58.01,-394.7 "/>
<text text-anchor="middle" x="29" y="-378.1" font-family="Courier New" font-size="14.00">10</text>
<polyline fill="none" stroke="black" points="0,-369.9 58.01,-369.9 "/>
<text text-anchor="middle" x="29" y="-353.3" font-family="Courier New" font-size="14.00">11</text>
<polyline fill="none" stroke="black" points="0,-345.1 58.01,-345.1 "/>
<text text-anchor="middle" x="29" y="-328.5" font-family="Courier New" font-size="14.00">12&#45;16</text>
<polyline fill="none" stroke="black" points="0,-320.3 58.01,-320.3 "/>
<text text-anchor="middle" x="29" y="-303.7" font-family="Courier New" font-size="14.00">17</text>
<polyline fill="none" stroke="black" points="0,-295.5 58.01,-295.5 "/>
<text text-anchor="middle" x="29" y="-278.9" font-family="Courier New" font-size="14.00">18</text>
<polyline fill="none" stroke="black" points="0,-270.7 58.01,-270.7 "/>
<text text-anchor="middle" x="29" y="-254.1" font-family="Courier New" font-size="14.00">19</text>
<polyline fill="none" stroke="black" points="0,-245.9 58.01,-245.9 "/>
<text text-anchor="middle" x="29" y="-229.3" font-family="Courier New" font-size="14.00">20</text>
<polyline fill="none" stroke="black" points="0,-221.1 58.01,-221.1 "/>
<text text-anchor="middle" x="29" y="-204.5" font-family="Courier New" font-size="14.00">21</text>
<polyline fill="none" stroke="black" points="58.01,-196.3 58.01,-667.5 "/>
<text text-anchor="middle" x="297.04" y="-650.9" font-family="Courier New" font-size="14.00">type: &lt;inherited contract&gt;.variable (bytes)</text>
<polyline fill="none" stroke="black" points="58.01,-642.7 536.08,-642.7 "/>
<text text-anchor="middle" x="152.22" y="-626.1" font-family="Courier New" font-size="14.00">unallocated (12)</text>
<polyline fill="none" stroke="black" points="246.43,-617.9 246.43,-642.7 "/>
<text text-anchor="middle" x="391.05" y="-626.1" font-family="Courier New" font-size="14.00">address: Ownable._owner (20)</text>
<polyline fill="none" stroke="black" points="58.01,-617.9 536.08,-617.9 "/>
<text text-anchor="middle" x="296.94" y="-601.3" font-family="Courier New" font-size="14.00">uint256: ConstantsOptimized.tradeFlag (32)</text>
<polyline fill="none" stroke="black" points="58.01,-593.1 536.08,-593.1 "/>
<text text-anchor="middle" x="296.94" y="-576.5" font-family="Courier New" font-size="14.00">uint256: ConstantsOptimized.basicFlag (32)</text>
<polyline fill="none" stroke="black" points="58.01,-568.3 536.08,-568.3 "/>
<text text-anchor="middle" x="297.04" y="-551.7" font-family="Courier New" font-size="14.00">uint256: ConstantsOptimized.dividendFlag (32)</text>
<polyline fill="none" stroke="black" points="58.01,-543.5 536.08,-543.5 "/>
<text text-anchor="middle" x="297.02" y="-526.9" font-family="Courier New" font-size="14.00">uint256: totalSupply (32)</text>
<polyline fill="none" stroke="black" points="58.01,-518.7 536.08,-518.7 "/>
<text text-anchor="middle" x="296.63" y="-502.1" font-family="Courier New" font-size="14.00">uint256: paymentCounter (32)</text>
<polyline fill="none" stroke="black" points="58.01,-493.9 536.08,-493.9 "/>
<text text-anchor="middle" x="296.72" y="-477.3" font-family="Courier New" font-size="14.00">uint256: tradePercent (32)</text>
<polyline fill="none" stroke="black" points="58.01,-469.1 536.08,-469.1 "/>
<text text-anchor="middle" x="296.62" y="-452.5" font-family="Courier New" font-size="14.00">uint256: tradeMode (32)</text>
<polyline fill="none" stroke="black" points="58.01,-444.3 536.08,-444.3 "/>
<text text-anchor="middle" x="297.03" y="-427.7" font-family="Courier New" font-size="14.00">mapping(address=&gt;uint256): balances (32)</text>
<polyline fill="none" stroke="black" points="58.01,-419.5 536.08,-419.5 "/>
<text text-anchor="middle" x="296.94" y="-402.9" font-family="Courier New" font-size="14.00">mapping(address=&gt;Payment[]): payments (32)</text>
<polyline fill="none" stroke="black" points="58.01,-394.7 536.08,-394.7 "/>
<text text-anchor="middle" x="296.73" y="-378.1" font-family="Courier New" font-size="14.00">mapping(address=&gt;uint256): whitelist (32)</text>
<polyline fill="none" stroke="black" points="58.01,-369.9 536.08,-369.9 "/>
<text text-anchor="middle" x="154.22" y="-353.3" font-family="Courier New" font-size="14.00">unallocated (12)</text>
<polyline fill="none" stroke="black" points="250.43,-345.1 250.43,-369.9 "/>
<text text-anchor="middle" x="392.85" y="-353.3" font-family="Courier New" font-size="14.00">address: contractOwner (20)</text>
<polyline fill="none" stroke="black" points="58.01,-345.1 536.08,-345.1 "/>
<text text-anchor="middle" x="296.93" y="-328.5" font-family="Courier New" font-size="14.00">address[5]: administrators (160)</text>
<polyline fill="none" stroke="black" points="58.01,-320.3 536.08,-320.3 "/>
<text text-anchor="middle" x="175.22" y="-303.7" font-family="Courier New" font-size="14.00">unallocated (31)</text>
<polyline fill="none" stroke="black" points="292.43,-295.5 292.43,-320.3 "/>
<text text-anchor="middle" x="413.84" y="-303.7" font-family="Courier New" font-size="14.00">bool: isReady (1)</text>
<polyline fill="none" stroke="black" points="58.01,-295.5 536.08,-295.5 "/>
<text text-anchor="middle" x="297.03" y="-278.9" font-family="Courier New" font-size="14.00">History[]: paymentHistory (32)</text>
<polyline fill="none" stroke="black" points="58.01,-270.7 536.08,-270.7 "/>
<text text-anchor="middle" x="296.82" y="-254.1" font-family="Courier New" font-size="14.00">uint256: wasLastOdd (32)</text>
<polyline fill="none" stroke="black" points="58.01,-245.9 536.08,-245.9 "/>
<text text-anchor="middle" x="297.04" y="-229.3" font-family="Courier New" font-size="14.00">mapping(address=&gt;uint256): isOddWhitelistUser (32)</text>
<polyline fill="none" stroke="black" points="58.01,-221.1 536.08,-221.1 "/>
<text text-anchor="middle" x="297.04" y="-204.5" font-family="Courier New" font-size="14.00">mapping(address=&gt;ImportantStruct): whiteListStruct (32)</text>
</g>
<!-- 1 -->
<g id="node2" class="node">
<title>1</title>
<polygon fill="#f2f2f2" stroke="black" points="580.48,-471.1 580.48,-669.5 1173.77,-669.5 1173.77,-471.1 580.48,-471.1"/>
<text text-anchor="middle" x="877.13" y="-652.9" font-family="Courier New" font-size="14.00">Payment &lt;&lt;Struct&gt;&gt;</text>
<polyline fill="none" stroke="black" points="580.48,-644.7 1173.77,-644.7 "/>
<text text-anchor="middle" x="613.69" y="-628.1" font-family="Courier New" font-size="14.00">offset</text>
<polyline fill="none" stroke="black" points="580.48,-619.9 646.89,-619.9 "/>
<text text-anchor="middle" x="613.69" y="-603.3" font-family="Courier New" font-size="14.00">0</text>
<polyline fill="none" stroke="black" points="580.48,-595.1 646.89,-595.1 "/>
<text text-anchor="middle" x="613.69" y="-578.5" font-family="Courier New" font-size="14.00">1</text>
<polyline fill="none" stroke="black" points="580.48,-570.3 646.89,-570.3 "/>
<text text-anchor="middle" x="613.69" y="-553.7" font-family="Courier New" font-size="14.00">2</text>
<polyline fill="none" stroke="black" points="580.48,-545.5 646.89,-545.5 "/>
<text text-anchor="middle" x="613.69" y="-528.9" font-family="Courier New" font-size="14.00">3</text>
<polyline fill="none" stroke="black" points="580.48,-520.7 646.89,-520.7 "/>
<text text-anchor="middle" x="613.69" y="-504.1" font-family="Courier New" font-size="14.00">4</text>
<polyline fill="none" stroke="black" points="580.48,-495.9 646.89,-495.9 "/>
<text text-anchor="middle" x="613.69" y="-479.3" font-family="Courier New" font-size="14.00">5</text>
<polyline fill="none" stroke="black" points="646.89,-471.1 646.89,-644.7 "/>
<text text-anchor="middle" x="910.33" y="-628.1" font-family="Courier New" font-size="14.00">type: variable (bytes)</text>
<polyline fill="none" stroke="black" points="646.89,-619.9 1173.77,-619.9 "/>
<text text-anchor="middle" x="753.1" y="-603.3" font-family="Courier New" font-size="14.00">unallocated (31)</text>
<polyline fill="none" stroke="black" points="859.31,-595.1 859.31,-619.9 "/>
<text text-anchor="middle" x="1016.43" y="-603.3" font-family="Courier New" font-size="14.00">PaymentType: paymentType (1)</text>
<polyline fill="none" stroke="black" points="646.89,-595.1 1173.77,-595.1 "/>
<text text-anchor="middle" x="910.01" y="-578.5" font-family="Courier New" font-size="14.00">uint256: paymentID (32)</text>
<polyline fill="none" stroke="black" points="646.89,-570.3 1173.77,-570.3 "/>
<text text-anchor="middle" x="909.91" y="-553.7" font-family="Courier New" font-size="14.00">uint256: amount (32)</text>
<polyline fill="none" stroke="black" points="646.89,-545.5 1173.77,-545.5 "/>
<text text-anchor="middle" x="910.11" y="-528.9" font-family="Courier New" font-size="14.00">string: recipientName (32)</text>
<polyline fill="none" stroke="black" points="646.89,-520.7 1173.77,-520.7 "/>
<text text-anchor="middle" x="763.6" y="-504.1" font-family="Courier New" font-size="14.00">unallocated (12)</text>
<polyline fill="none" stroke="black" points="880.31,-495.9 880.31,-520.7 "/>
<text text-anchor="middle" x="1026.93" y="-504.1" font-family="Courier New" font-size="14.00">address: recipient (20)</text>
<polyline fill="none" stroke="black" points="646.89,-495.9 1173.77,-495.9 "/>
<text text-anchor="middle" x="722.1" y="-479.3" font-family="Courier New" font-size="14.00">unallocated (11)</text>
<polyline fill="none" stroke="black" points="797.31,-471.1 797.31,-495.9 "/>
<text text-anchor="middle" x="897.73" y="-479.3" font-family="Courier New" font-size="14.00">bool: adminUpdated (1)</text>
<polyline fill="none" stroke="black" points="998.14,-471.1 998.14,-495.9 "/>
<text text-anchor="middle" x="1085.96" y="-479.3" font-family="Courier New" font-size="14.00">address: admin (20)</text>
</g>
<!-- 6&#45;&gt;1 -->
<g id="edge1" class="edge">
<title>6:17&#45;&gt;1</title>
<path fill="none" stroke="black" d="M536.08,-407.3C564.93,-407.3 549.36,-443.54 572.08,-461.3 573.66,-462.53 575.24,-463.75 576.85,-464.95"/>
<polygon fill="black" stroke="black" points="574.83,-467.81 584.98,-470.86 578.95,-462.15 574.83,-467.81"/>
</g>
<!-- 2 -->
<g id="node3" class="node">
<title>2</title>
<polygon fill="#f2f2f2" stroke="black" points="717.9,-302.9 717.9,-451.7 1036.35,-451.7 1036.35,-302.9 717.9,-302.9"/>
<text text-anchor="middle" x="877.13" y="-435.1" font-family="Courier New" font-size="14.00">address[5]: administrators &lt;&lt;Array&gt;&gt;</text>
<polyline fill="none" stroke="black" points="717.9,-426.9 1036.35,-426.9 "/>
<text text-anchor="middle" x="742.7" y="-410.3" font-family="Courier New" font-size="14.00">slot</text>
<polyline fill="none" stroke="black" points="717.9,-402.1 767.51,-402.1 "/>
<text text-anchor="middle" x="742.7" y="-385.5" font-family="Courier New" font-size="14.00">12</text>
<polyline fill="none" stroke="black" points="717.9,-377.3 767.51,-377.3 "/>
<text text-anchor="middle" x="742.7" y="-360.7" font-family="Courier New" font-size="14.00">13</text>
<polyline fill="none" stroke="black" points="717.9,-352.5 767.51,-352.5 "/>
<text text-anchor="middle" x="742.7" y="-335.9" font-family="Courier New" font-size="14.00">15</text>
<polyline fill="none" stroke="black" points="717.9,-327.7 767.51,-327.7 "/>
<text text-anchor="middle" x="742.7" y="-311.1" font-family="Courier New" font-size="14.00">16</text>
<polyline fill="none" stroke="black" points="767.51,-302.9 767.51,-426.9 "/>
<text text-anchor="middle" x="901.63" y="-410.3" font-family="Courier New" font-size="14.00">type: variable (bytes)</text>
<polyline fill="none" stroke="black" points="767.51,-402.1 1035.75,-402.1 "/>
<text text-anchor="middle" x="842.72" y="-385.5" font-family="Courier New" font-size="14.00">unallocated (12)</text>
<polyline fill="none" stroke="black" points="917.93,-377.3 917.93,-402.1 "/>
<text text-anchor="middle" x="976.84" y="-385.5" font-family="Courier New" font-size="14.00">address (20)</text>
<polyline fill="none" stroke="black" points="767.51,-377.3 1035.75,-377.3 "/>
<text text-anchor="middle" x="842.72" y="-360.7" font-family="Courier New" font-size="14.00">unallocated (12)</text>
<polyline fill="none" stroke="black" points="917.93,-352.5 917.93,-377.3 "/>
<text text-anchor="middle" x="976.84" y="-360.7" font-family="Courier New" font-size="14.00">address (20)</text>
<polyline fill="none" stroke="black" points="767.51,-352.5 1035.75,-352.5 "/>
<text text-anchor="middle" x="842.72" y="-335.9" font-family="Courier New" font-size="14.00">unallocated (12)</text>
<polyline fill="none" stroke="black" points="917.93,-327.7 917.93,-352.5 "/>
<text text-anchor="middle" x="976.84" y="-335.9" font-family="Courier New" font-size="14.00">address (20)</text>
<polyline fill="none" stroke="black" points="767.51,-327.7 1035.75,-327.7 "/>
<text text-anchor="middle" x="842.72" y="-311.1" font-family="Courier New" font-size="14.00">unallocated (12)</text>
<polyline fill="none" stroke="black" points="917.93,-302.9 917.93,-327.7 "/>
<text text-anchor="middle" x="976.84" y="-311.1" font-family="Courier New" font-size="14.00">address (20)</text>
</g>
<!-- 6&#45;&gt;2 -->
<g id="edge2" class="edge">
<title>6:24&#45;&gt;2</title>
<path fill="none" stroke="black" d="M536.08,-332.3C592.14,-332.3 652.96,-338.39 707.45,-346.08"/>
<polygon fill="black" stroke="black" points="707.15,-349.57 717.55,-347.53 708.15,-342.65 707.15,-349.57"/>
</g>
<!-- 4 -->
<g id="node5" class="node">
<title>4</title>
<polygon fill="#f2f2f2" stroke="black" points="591.88,-192.7 591.88,-283.9 1162.37,-283.9 1162.37,-192.7 591.88,-192.7"/>
<text text-anchor="middle" x="877.13" y="-267.3" font-family="Courier New" font-size="14.00">History[]: paymentHistory &lt;&lt;Array&gt;&gt;</text>
<text text-anchor="middle" x="877.13" y="-250.5" font-family="Courier New" font-size="14.00">0xbb8a6a4669ba250d26cd7a459eca9d215f8307e33aebe50379bc5a3617ec3444</text>
<polyline fill="none" stroke="black" points="591.88,-242.3 1162.37,-242.3 "/>
<text text-anchor="middle" x="700.59" y="-225.7" font-family="Courier New" font-size="14.00">offset</text>
<polyline fill="none" stroke="black" points="591.88,-217.5 809.29,-217.5 "/>
<text text-anchor="middle" x="700.59" y="-200.9" font-family="Courier New" font-size="14.00">0&#45;2</text>
<polyline fill="none" stroke="black" points="809.29,-192.7 809.29,-242.3 "/>
<text text-anchor="middle" x="985.7" y="-225.7" font-family="Courier New" font-size="14.00">type: variable (bytes)</text>
<polyline fill="none" stroke="black" points="809.29,-217.5 1162.12,-217.5 "/>
<text text-anchor="middle" x="985.7" y="-200.9" font-family="Courier New" font-size="14.00">History (96)</text>
</g>
<!-- 6&#45;&gt;4 -->
<g id="edge3" class="edge">
<title>6:30&#45;&gt;4</title>
<path fill="none" stroke="black" d="M536.08,-283.3C550.98,-283.3 566.22,-282.87 581.58,-282.09"/>
<polygon fill="black" stroke="black" points="581.9,-285.58 591.69,-281.54 581.51,-278.59 581.9,-285.58"/>
</g>
<!-- 5 -->
<g id="node6" class="node">
<title>5</title>
<polygon fill="#f2f2f2" stroke="black" points="572.08,-0.5 572.08,-174.1 1182.17,-174.1 1182.17,-0.5 572.08,-0.5"/>
<text text-anchor="middle" x="877.13" y="-157.5" font-family="Courier New" font-size="14.00">ImportantStruct &lt;&lt;Struct&gt;&gt;</text>
<polyline fill="none" stroke="black" points="572.08,-149.3 1182.17,-149.3 "/>
<text text-anchor="middle" x="605.29" y="-132.7" font-family="Courier New" font-size="14.00">offset</text>
<polyline fill="none" stroke="black" points="572.08,-124.5 638.49,-124.5 "/>
<text text-anchor="middle" x="605.29" y="-107.9" font-family="Courier New" font-size="14.00">0</text>
<polyline fill="none" stroke="black" points="572.08,-99.7 638.49,-99.7 "/>
<text text-anchor="middle" x="605.29" y="-83.1" font-family="Courier New" font-size="14.00">1</text>
<polyline fill="none" stroke="black" points="572.08,-74.9 638.49,-74.9 "/>
<text text-anchor="middle" x="605.29" y="-58.3" font-family="Courier New" font-size="14.00">2</text>
<polyline fill="none" stroke="black" points="572.08,-50.1 638.49,-50.1 "/>
<text text-anchor="middle" x="605.29" y="-33.5" font-family="Courier New" font-size="14.00">3</text>
<polyline fill="none" stroke="black" points="572.08,-25.3 638.49,-25.3 "/>
<text text-anchor="middle" x="605.29" y="-8.7" font-family="Courier New" font-size="14.00">4</text>
<polyline fill="none" stroke="black" points="638.49,-0.5 638.49,-149.3 "/>
<text text-anchor="middle" x="910.33" y="-132.7" font-family="Courier New" font-size="14.00">type: variable (bytes)</text>
<polyline fill="none" stroke="black" points="638.49,-124.5 1182.17,-124.5 "/>
<text text-anchor="middle" x="910" y="-107.9" font-family="Courier New" font-size="14.00">uint256: amount (32)</text>
<polyline fill="none" stroke="black" points="638.49,-99.7 1182.17,-99.7 "/>
<text text-anchor="middle" x="910" y="-83.1" font-family="Courier New" font-size="14.00">uint256: valueA (32)</text>
<polyline fill="none" stroke="black" points="638.49,-74.9 1182.17,-74.9 "/>
<text text-anchor="middle" x="909.91" y="-58.3" font-family="Courier New" font-size="14.00">uint256: bigValue (32)</text>
<polyline fill="none" stroke="black" points="638.49,-50.1 1182.17,-50.1 "/>
<text text-anchor="middle" x="910" y="-33.5" font-family="Courier New" font-size="14.00">uint256: valueB (32)</text>
<polyline fill="none" stroke="black" points="638.49,-25.3 1182.17,-25.3 "/>
<text text-anchor="middle" x="713.7" y="-8.7" font-family="Courier New" font-size="14.00">unallocated (11)</text>
<polyline fill="none" stroke="black" points="788.91,-0.5 788.91,-25.3 "/>
<text text-anchor="middle" x="880.93" y="-8.7" font-family="Courier New" font-size="14.00">address: sender (20)</text>
<polyline fill="none" stroke="black" points="972.94,-0.5 972.94,-25.3 "/>
<text text-anchor="middle" x="1077.56" y="-8.7" font-family="Courier New" font-size="14.00">bool: paymentStatus (1)</text>
</g>
<!-- 6&#45;&gt;5 -->
<g id="edge4" class="edge">
<title>6:39&#45;&gt;5</title>
<path fill="none" stroke="black" d="M536.08,-208.3C555.56,-208.3 554.6,-191.89 572.08,-183.3 575.45,-181.65 578.85,-180.02 582.28,-178.4"/>
<polygon fill="black" stroke="black" points="583.81,-181.55 591.43,-174.18 580.88,-175.19 583.81,-181.55"/>
</g>
<!-- 3 -->
<g id="node4" class="node">
<title>3</title>
<polygon fill="#f2f2f2" stroke="black" points="1218.17,-134.9 1218.17,-275.7 1788.66,-275.7 1788.66,-134.9 1218.17,-134.9"/>
<text text-anchor="middle" x="1503.42" y="-259.1" font-family="Courier New" font-size="14.00">History &lt;&lt;Struct&gt;&gt;</text>
<text text-anchor="middle" x="1503.42" y="-242.3" font-family="Courier New" font-size="14.00">0xbb8a6a4669ba250d26cd7a459eca9d215f8307e33aebe50379bc5a3617ec3444</text>
<polyline fill="none" stroke="black" points="1218.17,-234.1 1788.66,-234.1 "/>
<text text-anchor="middle" x="1287.38" y="-217.5" font-family="Courier New" font-size="14.00">offset</text>
<polyline fill="none" stroke="black" points="1218.17,-209.3 1356.58,-209.3 "/>
<text text-anchor="middle" x="1287.38" y="-192.7" font-family="Courier New" font-size="14.00">0</text>
<polyline fill="none" stroke="black" points="1218.17,-184.5 1356.58,-184.5 "/>
<text text-anchor="middle" x="1287.38" y="-167.9" font-family="Courier New" font-size="14.00">1</text>
<polyline fill="none" stroke="black" points="1218.17,-159.7 1356.58,-159.7 "/>
<text text-anchor="middle" x="1287.38" y="-143.1" font-family="Courier New" font-size="14.00">2</text>
<polyline fill="none" stroke="black" points="1356.58,-134.9 1356.58,-234.1 "/>
<text text-anchor="middle" x="1572.41" y="-217.5" font-family="Courier New" font-size="14.00">type: variable (bytes)</text>
<polyline fill="none" stroke="black" points="1356.58,-209.3 1788.23,-209.3 "/>
<text text-anchor="middle" x="1572.4" y="-192.7" font-family="Courier New" font-size="14.00">uint256: lastUpdate (32)</text>
<polyline fill="none" stroke="black" points="1356.58,-184.5 1788.23,-184.5 "/>
<text text-anchor="middle" x="1572.1" y="-167.9" font-family="Courier New" font-size="14.00">uint256: blockNumber (32)</text>
<polyline fill="none" stroke="black" points="1356.58,-159.7 1788.23,-159.7 "/>
<text text-anchor="middle" x="1449.79" y="-143.1" font-family="Courier New" font-size="14.00">unallocated (12)</text>
<polyline fill="none" stroke="black" points="1543,-134.9 1543,-159.7 "/>
<text text-anchor="middle" x="1665.62" y="-143.1" font-family="Courier New" font-size="14.00">address: updatedBy (20)</text>
</g>
<!-- 4&#45;&gt;3 -->
<g id="edge5" class="edge">
<title>4:29&#45;&gt;3</title>
<path fill="none" stroke="black" d="M1163.13,-205.3C1177.6,-205.3 1192.43,-205.3 1207.4,-205.3"/>
<polygon fill="black" stroke="black" points="1207.79,-208.8 1217.79,-205.3 1207.79,-201.8 1207.79,-208.8"/>
</g>
</g>
</svg>
