<?xml version="1.0" encoding="UTF-8" standalone="no"?>
<!DOCTYPE svg PUBLIC "-//W3C//DTD SVG 1.1//EN"
 "http://www.w3.org/Graphics/SVG/1.1/DTD/svg11.dtd">
<!-- Generated by graphviz version 5.0.0 (20220707.1540)
 -->
<!-- Title: StorageDiagram Pages: 1 -->
<svg width="1862pt" height="762pt"
 viewBox="0.00 0.00 1862.27 762.00" xmlns="http://www.w3.org/2000/svg" xmlns:xlink="http://www.w3.org/1999/xlink">
<g id="graph0" class="graph" transform="scale(1 1) rotate(0) translate(4 758)">
<title>StorageDiagram</title>
<polygon fill="white" stroke="transparent" points="-4,4 -4,-758 1858.27,-758 1858.27,4 -4,4"/>
<!-- 6 -->
<g id="node1" class="node">
<title>6</title>
<polygon fill="#f2f2f2" stroke="black" points="0,-282.3 0,-753.5 601.69,-753.5 601.69,-282.3 0,-282.3"/>
<text text-anchor="middle" x="300.84" y="-736.9" font-family="Courier New" font-size="14.00">GasContractOptimized &lt;&lt;Contract&gt;&gt;</text>
<polyline fill="none" stroke="black" points="0,-728.7 601.69,-728.7 "/>
<text text-anchor="middle" x="24.8" y="-712.1" font-family="Courier New" font-size="14.00">slot</text>
<polyline fill="none" stroke="black" points="0,-703.9 49.61,-703.9 "/>
<text text-anchor="middle" x="24.8" y="-687.3" font-family="Courier New" font-size="14.00">0</text>
<polyline fill="none" stroke="black" points="0,-679.1 49.61,-679.1 "/>
<text text-anchor="middle" x="24.8" y="-662.5" font-family="Courier New" font-size="14.00">1</text>
<polyline fill="none" stroke="black" points="0,-654.3 49.61,-654.3 "/>
<text text-anchor="middle" x="24.8" y="-637.7" font-family="Courier New" font-size="14.00">2</text>
<polyline fill="none" stroke="black" points="0,-629.5 49.61,-629.5 "/>
<text text-anchor="middle" x="24.8" y="-612.9" font-family="Courier New" font-size="14.00">3</text>
<polyline fill="none" stroke="black" points="0,-604.7 49.61,-604.7 "/>
<text text-anchor="middle" x="24.8" y="-588.1" font-family="Courier New" font-size="14.00">4</text>
<polyline fill="none" stroke="black" points="0,-579.9 49.61,-579.9 "/>
<text text-anchor="middle" x="24.8" y="-563.3" font-family="Courier New" font-size="14.00">5&#45;9</text>
<polyline fill="none" stroke="black" points="0,-555.1 49.61,-555.1 "/>
<text text-anchor="middle" x="24.8" y="-538.5" font-family="Courier New" font-size="14.00">10</text>
<polyline fill="none" stroke="black" points="0,-530.3 49.61,-530.3 "/>
<text text-anchor="middle" x="24.8" y="-513.7" font-family="Courier New" font-size="14.00">11</text>
<polyline fill="none" stroke="black" points="0,-505.5 49.61,-505.5 "/>
<text text-anchor="middle" x="24.8" y="-488.9" font-family="Courier New" font-size="14.00">12</text>
<polyline fill="none" stroke="black" points="0,-480.7 49.61,-480.7 "/>
<text text-anchor="middle" x="24.8" y="-464.1" font-family="Courier New" font-size="14.00">13</text>
<polyline fill="none" stroke="black" points="0,-455.9 49.61,-455.9 "/>
<text text-anchor="middle" x="24.8" y="-439.3" font-family="Courier New" font-size="14.00">14</text>
<polyline fill="none" stroke="black" points="0,-431.1 49.61,-431.1 "/>
<text text-anchor="middle" x="24.8" y="-414.5" font-family="Courier New" font-size="14.00">15</text>
<polyline fill="none" stroke="black" points="0,-406.3 49.61,-406.3 "/>
<text text-anchor="middle" x="24.8" y="-389.7" font-family="Courier New" font-size="14.00">16</text>
<polyline fill="none" stroke="black" points="0,-381.5 49.61,-381.5 "/>
<text text-anchor="middle" x="24.8" y="-364.9" font-family="Courier New" font-size="14.00">17</text>
<polyline fill="none" stroke="black" points="0,-356.7 49.61,-356.7 "/>
<text text-anchor="middle" x="24.8" y="-340.1" font-family="Courier New" font-size="14.00">18</text>
<polyline fill="none" stroke="black" points="0,-331.9 49.61,-331.9 "/>
<text text-anchor="middle" x="24.8" y="-315.3" font-family="Courier New" font-size="14.00">19</text>
<polyline fill="none" stroke="black" points="0,-307.1 49.61,-307.1 "/>
<text text-anchor="middle" x="24.8" y="-290.5" font-family="Courier New" font-size="14.00">20</text>
<polyline fill="none" stroke="black" points="49.61,-282.3 49.61,-728.7 "/>
<text text-anchor="middle" x="325.65" y="-712.1" font-family="Courier New" font-size="14.00">type: &lt;inherited contract&gt;.variable (bytes)</text>
<polyline fill="none" stroke="black" points="49.61,-703.9 601.69,-703.9 "/>
<text text-anchor="middle" x="162.32" y="-687.3" font-family="Courier New" font-size="14.00">unallocated (12)</text>
<polyline fill="none" stroke="black" points="275.03,-679.1 275.03,-703.9 "/>
<text text-anchor="middle" x="438.15" y="-687.3" font-family="Courier New" font-size="14.00">address: Ownable._owner (20)</text>
<polyline fill="none" stroke="black" points="49.61,-679.1 601.69,-679.1 "/>
<text text-anchor="middle" x="325.53" y="-662.5" font-family="Courier New" font-size="14.00">uint256: ConstantsOptimized.tradeFlag (32)</text>
<polyline fill="none" stroke="black" points="49.61,-654.3 601.69,-654.3 "/>
<text text-anchor="middle" x="325.53" y="-637.7" font-family="Courier New" font-size="14.00">uint256: ConstantsOptimized.basicFlag (32)</text>
<polyline fill="none" stroke="black" points="49.61,-629.5 601.69,-629.5 "/>
<text text-anchor="middle" x="325.64" y="-612.9" font-family="Courier New" font-size="14.00">uint256: ConstantsOptimized.dividendFlag (32)</text>
<polyline fill="none" stroke="black" points="49.61,-604.7 601.69,-604.7 "/>
<text text-anchor="middle" x="124.82" y="-588.1" font-family="Courier New" font-size="14.00">unallocated (11)</text>
<polyline fill="none" stroke="black" points="200.03,-579.9 200.03,-604.7 "/>
<text text-anchor="middle" x="321.45" y="-588.1" font-family="Courier New" font-size="14.00">address: contractOwner (20)</text>
<polyline fill="none" stroke="black" points="442.86,-579.9 442.86,-604.7 "/>
<text text-anchor="middle" x="522.28" y="-588.1" font-family="Courier New" font-size="14.00">bool: isReady (1)</text>
<polyline fill="none" stroke="black" points="49.61,-579.9 601.69,-579.9 "/>
<text text-anchor="middle" x="325.53" y="-563.3" font-family="Courier New" font-size="14.00">address[5]: administrators (160)</text>
<polyline fill="none" stroke="black" points="49.61,-555.1 601.69,-555.1 "/>
<text text-anchor="middle" x="325.42" y="-538.5" font-family="Courier New" font-size="14.00">uint256: wasLastOdd (32)</text>
<polyline fill="none" stroke="black" points="49.61,-530.3 601.69,-530.3 "/>
<text text-anchor="middle" x="325.32" y="-513.7" font-family="Courier New" font-size="14.00">uint256: tradePercent (32)</text>
<polyline fill="none" stroke="black" points="49.61,-505.5 601.69,-505.5 "/>
<text text-anchor="middle" x="325.22" y="-488.9" font-family="Courier New" font-size="14.00">uint256: tradeMode (32)</text>
<polyline fill="none" stroke="black" points="49.61,-480.7 601.69,-480.7 "/>
<text text-anchor="middle" x="325.62" y="-464.1" font-family="Courier New" font-size="14.00">uint256: totalSupply (32)</text>
<polyline fill="none" stroke="black" points="49.61,-455.9 601.69,-455.9 "/>
<text text-anchor="middle" x="325.22" y="-439.3" font-family="Courier New" font-size="14.00">uint256: paymentCounter (32)</text>
<polyline fill="none" stroke="black" points="49.61,-431.1 601.69,-431.1 "/>
<text text-anchor="middle" x="325.63" y="-414.5" font-family="Courier New" font-size="14.00">mapping(address=&gt;uint256): balances (32)</text>
<polyline fill="none" stroke="black" points="49.61,-406.3 601.69,-406.3 "/>
<text text-anchor="middle" x="325.53" y="-389.7" font-family="Courier New" font-size="14.00">mapping(address=&gt;Payment[]): payments (32)</text>
<polyline fill="none" stroke="black" points="49.61,-381.5 601.69,-381.5 "/>
<text text-anchor="middle" x="325.33" y="-364.9" font-family="Courier New" font-size="14.00">mapping(address=&gt;uint256): whitelist (32)</text>
<polyline fill="none" stroke="black" points="49.61,-356.7 601.69,-356.7 "/>
<text text-anchor="middle" x="325.64" y="-340.1" font-family="Courier New" font-size="14.00">mapping(address=&gt;uint256): isOddWhitelistUser (32)</text>
<polyline fill="none" stroke="black" points="49.61,-331.9 601.69,-331.9 "/>
<text text-anchor="middle" x="325.64" y="-315.3" font-family="Courier New" font-size="14.00">mapping(address=&gt;ImportantStruct): whiteListStruct (32)</text>
<polyline fill="none" stroke="black" points="49.61,-307.1 601.69,-307.1 "/>
<text text-anchor="middle" x="325.63" y="-290.5" font-family="Courier New" font-size="14.00">History[]: paymentHistory (32)</text>
</g>
<!-- 1 -->
<g id="node2" class="node">
<title>1</title>
<polygon fill="#f2f2f2" stroke="black" points="783.51,-578.5 783.51,-727.3 1101.96,-727.3 1101.96,-578.5 783.51,-578.5"/>
<text text-anchor="middle" x="942.73" y="-710.7" font-family="Courier New" font-size="14.00">address[5]: administrators &lt;&lt;Array&gt;&gt;</text>
<polyline fill="none" stroke="black" points="783.51,-702.5 1101.96,-702.5 "/>
<text text-anchor="middle" x="808.31" y="-685.9" font-family="Courier New" font-size="14.00">slot</text>
<polyline fill="none" stroke="black" points="783.51,-677.7 833.11,-677.7 "/>
<text text-anchor="middle" x="808.31" y="-661.1" font-family="Courier New" font-size="14.00">5</text>
<polyline fill="none" stroke="black" points="783.51,-652.9 833.11,-652.9 "/>
<text text-anchor="middle" x="808.31" y="-636.3" font-family="Courier New" font-size="14.00">6</text>
<polyline fill="none" stroke="black" points="783.51,-628.1 833.11,-628.1 "/>
<text text-anchor="middle" x="808.31" y="-611.5" font-family="Courier New" font-size="14.00">8</text>
<polyline fill="none" stroke="black" points="783.51,-603.3 833.11,-603.3 "/>
<text text-anchor="middle" x="808.31" y="-586.7" font-family="Courier New" font-size="14.00">9</text>
<polyline fill="none" stroke="black" points="833.11,-578.5 833.11,-702.5 "/>
<text text-anchor="middle" x="967.23" y="-685.9" font-family="Courier New" font-size="14.00">type: variable (bytes)</text>
<polyline fill="none" stroke="black" points="833.11,-677.7 1101.35,-677.7 "/>
<text text-anchor="middle" x="908.32" y="-661.1" font-family="Courier New" font-size="14.00">unallocated (12)</text>
<polyline fill="none" stroke="black" points="983.53,-652.9 983.53,-677.7 "/>
<text text-anchor="middle" x="1042.44" y="-661.1" font-family="Courier New" font-size="14.00">address (20)</text>
<polyline fill="none" stroke="black" points="833.11,-652.9 1101.35,-652.9 "/>
<text text-anchor="middle" x="908.32" y="-636.3" font-family="Courier New" font-size="14.00">unallocated (12)</text>
<polyline fill="none" stroke="black" points="983.53,-628.1 983.53,-652.9 "/>
<text text-anchor="middle" x="1042.44" y="-636.3" font-family="Courier New" font-size="14.00">address (20)</text>
<polyline fill="none" stroke="black" points="833.11,-628.1 1101.35,-628.1 "/>
<text text-anchor="middle" x="908.32" y="-611.5" font-family="Courier New" font-size="14.00">unallocated (12)</text>
<polyline fill="none" stroke="black" points="983.53,-603.3 983.53,-628.1 "/>
<text text-anchor="middle" x="1042.44" y="-611.5" font-family="Courier New" font-size="14.00">address (20)</text>
<polyline fill="none" stroke="black" points="833.11,-603.3 1101.35,-603.3 "/>
<text text-anchor="middle" x="908.32" y="-586.7" font-family="Courier New" font-size="14.00">unallocated (12)</text>
<polyline fill="none" stroke="black" points="983.53,-578.5 983.53,-603.3 "/>
<text text-anchor="middle" x="1042.44" y="-586.7" font-family="Courier New" font-size="14.00">address (20)</text>
</g>
<!-- 6&#45;&gt;1 -->
<g id="edge1" class="edge">
<title>6:11&#45;&gt;1</title>
<path fill="none" stroke="black" d="M601.69,-567.9C658.66,-567.9 719.45,-579.27 773.63,-593.69"/>
<polygon fill="black" stroke="black" points="772.75,-597.08 783.32,-596.32 774.59,-590.32 772.75,-597.08"/>
</g>
<!-- 2 -->
<g id="node3" class="node">
<title>2</title>
<polygon fill="#f2f2f2" stroke="black" points="646.09,-360.7 646.09,-559.1 1239.38,-559.1 1239.38,-360.7 646.09,-360.7"/>
<text text-anchor="middle" x="942.73" y="-542.5" font-family="Courier New" font-size="14.00">Payment &lt;&lt;Struct&gt;&gt;</text>
<polyline fill="none" stroke="black" points="646.09,-534.3 1239.38,-534.3 "/>
<text text-anchor="middle" x="679.29" y="-517.7" font-family="Courier New" font-size="14.00">offset</text>
<polyline fill="none" stroke="black" points="646.09,-509.5 712.5,-509.5 "/>
<text text-anchor="middle" x="679.29" y="-492.9" font-family="Courier New" font-size="14.00">0</text>
<polyline fill="none" stroke="black" points="646.09,-484.7 712.5,-484.7 "/>
<text text-anchor="middle" x="679.29" y="-468.1" font-family="Courier New" font-size="14.00">1</text>
<polyline fill="none" stroke="black" points="646.09,-459.9 712.5,-459.9 "/>
<text text-anchor="middle" x="679.29" y="-443.3" font-family="Courier New" font-size="14.00">2</text>
<polyline fill="none" stroke="black" points="646.09,-435.1 712.5,-435.1 "/>
<text text-anchor="middle" x="679.29" y="-418.5" font-family="Courier New" font-size="14.00">3</text>
<polyline fill="none" stroke="black" points="646.09,-410.3 712.5,-410.3 "/>
<text text-anchor="middle" x="679.29" y="-393.7" font-family="Courier New" font-size="14.00">4</text>
<polyline fill="none" stroke="black" points="646.09,-385.5 712.5,-385.5 "/>
<text text-anchor="middle" x="679.29" y="-368.9" font-family="Courier New" font-size="14.00">5</text>
<polyline fill="none" stroke="black" points="712.5,-360.7 712.5,-534.3 "/>
<text text-anchor="middle" x="975.94" y="-517.7" font-family="Courier New" font-size="14.00">type: variable (bytes)</text>
<polyline fill="none" stroke="black" points="712.5,-509.5 1239.38,-509.5 "/>
<text text-anchor="middle" x="818.71" y="-492.9" font-family="Courier New" font-size="14.00">unallocated (31)</text>
<polyline fill="none" stroke="black" points="924.92,-484.7 924.92,-509.5 "/>
<text text-anchor="middle" x="1082.04" y="-492.9" font-family="Courier New" font-size="14.00">PaymentType: paymentType (1)</text>
<polyline fill="none" stroke="black" points="712.5,-484.7 1239.38,-484.7 "/>
<text text-anchor="middle" x="975.61" y="-468.1" font-family="Courier New" font-size="14.00">uint256: paymentID (32)</text>
<polyline fill="none" stroke="black" points="712.5,-459.9 1239.38,-459.9 "/>
<text text-anchor="middle" x="975.51" y="-443.3" font-family="Courier New" font-size="14.00">uint256: amount (32)</text>
<polyline fill="none" stroke="black" points="712.5,-435.1 1239.38,-435.1 "/>
<text text-anchor="middle" x="975.71" y="-418.5" font-family="Courier New" font-size="14.00">string: recipientName (32)</text>
<polyline fill="none" stroke="black" points="712.5,-410.3 1239.38,-410.3 "/>
<text text-anchor="middle" x="829.21" y="-393.7" font-family="Courier New" font-size="14.00">unallocated (12)</text>
<polyline fill="none" stroke="black" points="945.92,-385.5 945.92,-410.3 "/>
<text text-anchor="middle" x="1092.53" y="-393.7" font-family="Courier New" font-size="14.00">address: recipient (20)</text>
<polyline fill="none" stroke="black" points="712.5,-385.5 1239.38,-385.5 "/>
<text text-anchor="middle" x="787.71" y="-368.9" font-family="Courier New" font-size="14.00">unallocated (11)</text>
<polyline fill="none" stroke="black" points="862.92,-360.7 862.92,-385.5 "/>
<text text-anchor="middle" x="963.33" y="-368.9" font-family="Courier New" font-size="14.00">bool: adminUpdated (1)</text>
<polyline fill="none" stroke="black" points="1063.75,-360.7 1063.75,-385.5 "/>
<text text-anchor="middle" x="1151.56" y="-368.9" font-family="Courier New" font-size="14.00">address: admin (20)</text>
</g>
<!-- 6&#45;&gt;2 -->
<g id="edge2" class="edge">
<title>6:25&#45;&gt;2</title>
<path fill="none" stroke="black" d="M601.69,-393.9C612.85,-393.9 624.18,-394.25 635.6,-394.89"/>
<polygon fill="black" stroke="black" points="635.45,-398.39 645.65,-395.53 635.9,-391.4 635.45,-398.39"/>
</g>
<!-- 3 -->
<g id="node4" class="node">
<title>3</title>
<polygon fill="#f2f2f2" stroke="black" points="637.69,-168.1 637.69,-341.7 1247.78,-341.7 1247.78,-168.1 637.69,-168.1"/>
<text text-anchor="middle" x="942.73" y="-325.1" font-family="Courier New" font-size="14.00">ImportantStruct &lt;&lt;Struct&gt;&gt;</text>
<polyline fill="none" stroke="black" points="637.69,-316.9 1247.78,-316.9 "/>
<text text-anchor="middle" x="670.89" y="-300.3" font-family="Courier New" font-size="14.00">offset</text>
<polyline fill="none" stroke="black" points="637.69,-292.1 704.1,-292.1 "/>
<text text-anchor="middle" x="670.89" y="-275.5" font-family="Courier New" font-size="14.00">0</text>
<polyline fill="none" stroke="black" points="637.69,-267.3 704.1,-267.3 "/>
<text text-anchor="middle" x="670.89" y="-250.7" font-family="Courier New" font-size="14.00">1</text>
<polyline fill="none" stroke="black" points="637.69,-242.5 704.1,-242.5 "/>
<text text-anchor="middle" x="670.89" y="-225.9" font-family="Courier New" font-size="14.00">2</text>
<polyline fill="none" stroke="black" points="637.69,-217.7 704.1,-217.7 "/>
<text text-anchor="middle" x="670.89" y="-201.1" font-family="Courier New" font-size="14.00">3</text>
<polyline fill="none" stroke="black" points="637.69,-192.9 704.1,-192.9 "/>
<text text-anchor="middle" x="670.89" y="-176.3" font-family="Courier New" font-size="14.00">4</text>
<polyline fill="none" stroke="black" points="704.1,-168.1 704.1,-316.9 "/>
<text text-anchor="middle" x="975.94" y="-300.3" font-family="Courier New" font-size="14.00">type: variable (bytes)</text>
<polyline fill="none" stroke="black" points="704.1,-292.1 1247.78,-292.1 "/>
<text text-anchor="middle" x="975.61" y="-275.5" font-family="Courier New" font-size="14.00">uint256: amount (32)</text>
<polyline fill="none" stroke="black" points="704.1,-267.3 1247.78,-267.3 "/>
<text text-anchor="middle" x="975.61" y="-250.7" font-family="Courier New" font-size="14.00">uint256: valueA (32)</text>
<polyline fill="none" stroke="black" points="704.1,-242.5 1247.78,-242.5 "/>
<text text-anchor="middle" x="975.51" y="-225.9" font-family="Courier New" font-size="14.00">uint256: bigValue (32)</text>
<polyline fill="none" stroke="black" points="704.1,-217.7 1247.78,-217.7 "/>
<text text-anchor="middle" x="975.61" y="-201.1" font-family="Courier New" font-size="14.00">uint256: valueB (32)</text>
<polyline fill="none" stroke="black" points="704.1,-192.9 1247.78,-192.9 "/>
<text text-anchor="middle" x="779.31" y="-176.3" font-family="Courier New" font-size="14.00">unallocated (11)</text>
<polyline fill="none" stroke="black" points="854.52,-168.1 854.52,-192.9 "/>
<text text-anchor="middle" x="946.53" y="-176.3" font-family="Courier New" font-size="14.00">address: sender (20)</text>
<polyline fill="none" stroke="black" points="1038.54,-168.1 1038.54,-192.9 "/>
<text text-anchor="middle" x="1143.16" y="-176.3" font-family="Courier New" font-size="14.00">bool: paymentStatus (1)</text>
</g>
<!-- 6&#45;&gt;3 -->
<g id="edge3" class="edge">
<title>6:34&#45;&gt;3</title>
<path fill="none" stroke="black" d="M601.69,-319.9C610.11,-319.9 618.63,-319.71 627.21,-319.34"/>
<polygon fill="black" stroke="black" points="627.5,-322.83 637.31,-318.83 627.15,-315.84 627.5,-322.83"/>
</g>
<!-- 5 -->
<g id="node6" class="node">
<title>5</title>
<polygon fill="#f2f2f2" stroke="black" points="657.49,-58.3 657.49,-149.5 1227.98,-149.5 1227.98,-58.3 657.49,-58.3"/>
<text text-anchor="middle" x="942.73" y="-132.9" font-family="Courier New" font-size="14.00">History[]: paymentHistory &lt;&lt;Array&gt;&gt;</text>
<text text-anchor="middle" x="942.73" y="-116.1" font-family="Courier New" font-size="14.00">0xce6d7b5282bd9a3661ae061feed1dbda4e52ab073b1f9285be6e155d9c38d4ec</text>
<polyline fill="none" stroke="black" points="657.49,-107.9 1227.98,-107.9 "/>
<text text-anchor="middle" x="766.19" y="-91.3" font-family="Courier New" font-size="14.00">offset</text>
<polyline fill="none" stroke="black" points="657.49,-83.1 874.9,-83.1 "/>
<text text-anchor="middle" x="766.19" y="-66.5" font-family="Courier New" font-size="14.00">0&#45;2</text>
<polyline fill="none" stroke="black" points="874.9,-58.3 874.9,-107.9 "/>
<text text-anchor="middle" x="1051.31" y="-91.3" font-family="Courier New" font-size="14.00">type: variable (bytes)</text>
<polyline fill="none" stroke="black" points="874.9,-83.1 1227.73,-83.1 "/>
<text text-anchor="middle" x="1051.3" y="-66.5" font-family="Courier New" font-size="14.00">History (96)</text>
</g>
<!-- 6&#45;&gt;5 -->
<g id="edge4" class="edge">
<title>6:39&#45;&gt;5</title>
<path fill="none" stroke="black" d="M601.69,-294.9C664.21,-294.9 591.75,-201.31 637.69,-158.9 641.37,-155.5 645.2,-152.27 649.14,-149.21"/>
<polygon fill="black" stroke="black" points="651.4,-151.89 657.4,-143.16 647.26,-146.24 651.4,-151.89"/>
</g>
<!-- 4 -->
<g id="node5" class="node">
<title>4</title>
<polygon fill="#f2f2f2" stroke="black" points="1283.78,-0.5 1283.78,-141.3 1854.27,-141.3 1854.27,-0.5 1283.78,-0.5"/>
<text text-anchor="middle" x="1569.02" y="-124.7" font-family="Courier New" font-size="14.00">History &lt;&lt;Struct&gt;&gt;</text>
<text text-anchor="middle" x="1569.02" y="-107.9" font-family="Courier New" font-size="14.00">0xce6d7b5282bd9a3661ae061feed1dbda4e52ab073b1f9285be6e155d9c38d4ec</text>
<polyline fill="none" stroke="black" points="1283.78,-99.7 1854.27,-99.7 "/>
<text text-anchor="middle" x="1352.98" y="-83.1" font-family="Courier New" font-size="14.00">offset</text>
<polyline fill="none" stroke="black" points="1283.78,-74.9 1422.18,-74.9 "/>
<text text-anchor="middle" x="1352.98" y="-58.3" font-family="Courier New" font-size="14.00">0</text>
<polyline fill="none" stroke="black" points="1283.78,-50.1 1422.18,-50.1 "/>
<text text-anchor="middle" x="1352.98" y="-33.5" font-family="Courier New" font-size="14.00">1</text>
<polyline fill="none" stroke="black" points="1283.78,-25.3 1422.18,-25.3 "/>
<text text-anchor="middle" x="1352.98" y="-8.7" font-family="Courier New" font-size="14.00">2</text>
<polyline fill="none" stroke="black" points="1422.18,-0.5 1422.18,-99.7 "/>
<text text-anchor="middle" x="1638.01" y="-83.1" font-family="Courier New" font-size="14.00">type: variable (bytes)</text>
<polyline fill="none" stroke="black" points="1422.18,-74.9 1853.84,-74.9 "/>
<text text-anchor="middle" x="1638" y="-58.3" font-family="Courier New" font-size="14.00">uint256: lastUpdate (32)</text>
<polyline fill="none" stroke="black" points="1422.18,-50.1 1853.84,-50.1 "/>
<text text-anchor="middle" x="1637.7" y="-33.5" font-family="Courier New" font-size="14.00">uint256: blockNumber (32)</text>
<polyline fill="none" stroke="black" points="1422.18,-25.3 1853.84,-25.3 "/>
<text text-anchor="middle" x="1515.4" y="-8.7" font-family="Courier New" font-size="14.00">unallocated (12)</text>
<polyline fill="none" stroke="black" points="1608.61,-0.5 1608.61,-25.3 "/>
<text text-anchor="middle" x="1731.22" y="-8.7" font-family="Courier New" font-size="14.00">address: updatedBy (20)</text>
</g>
<!-- 5&#45;&gt;4 -->
<g id="edge5" class="edge">
<title>5:38&#45;&gt;4</title>
<path fill="none" stroke="black" d="M1228.73,-70.9C1243.21,-70.9 1258.03,-70.9 1273.01,-70.9"/>
<polygon fill="black" stroke="black" points="1273.39,-74.4 1283.39,-70.9 1273.39,-67.4 1273.39,-74.4"/>
</g>
</g>
</svg>
